<svg xmlns="http://www.w3.org/2000/svg" viewBox="0 0 500 500"><g id="freepik--Floor--inject-60"><path d="M409,250.09C320.63,199,177.76,199,89.92,250.09S2.55,383.89,91,434.93s231.28,51.05,319.12,0S497.45,301.13,409,250.09Z" style="fill:#f5f5f5"></path></g><g id="freepik--Shadows--inject-60"><path d="M413.76,361.93c-17-9.83-44.55-9.83-61.48,0s-16.83,25.78.2,35.61,44.56,9.84,61.48,0S430.79,371.77,413.76,361.93Z" style="fill:#e0e0e0"></path><path d="M297.5,398.16c-17-9.84-44.56-9.84-61.48,0s-16.83,25.77.2,35.61,44.56,9.83,61.48,0S314.53,408,297.5,398.16Z" style="fill:#e0e0e0"></path><path d="M141.94,413.14a1.3,1.3,0,0,0,0,2.46L147.8,419a4.66,4.66,0,0,0,4.24,0l119.52-68.54a1.29,1.29,0,0,0,0-2.45l-5.87-3.41a4.66,4.66,0,0,0-4.24,0Z" style="fill:#e0e0e0"></path><path d="M97.44,391.75a1.3,1.3,0,0,0,0,2.46l5.88,3.41a4.66,4.66,0,0,0,4.24,0l119.52-68.54a1.29,1.29,0,0,0,0-2.45l-5.87-3.41a4.66,4.66,0,0,0-4.24,0Z" style="fill:#e0e0e0"></path><path d="M424.65,326.18c6.2-3.58,16.23-3.58,22.39,0s6.13,9.4-.07,13-16.23,3.58-22.4,0S418.44,329.77,424.65,326.18Z" style="fill:#e0e0e0"></path><path d="M61.28,334.36c6.54-3.78,17.1-3.78,23.6,0s6.46,9.89-.08,13.67-17.1,3.78-23.6,0S54.74,338.13,61.28,334.36Z" style="fill:#e0e0e0"></path></g><g id="freepik--Plants--inject-60"><path d="M420.78,305.57l15,.44,15-.44c.65,10.15-1.33,20.49-4.06,25.54h0a6.89,6.89,0,0,1-3,3c-4.43,2.56-11.59,2.56-16,0a6.66,6.66,0,0,1-3-3.1C422.1,326,420.14,315.67,420.78,305.57Z" style="fill:#fff"></path><path d="M425.22,299.42c-5.89,3.4-5.92,8.91-.07,12.3s15.36,3.4,21.25,0,5.91-8.9.06-12.3S431.11,296,425.22,299.42Z" style="fill:#ebebeb"></path><path d="M427.55,300.77c-4.6,2.65-4.62,7-.06,9.6s12,2.65,16.58,0,4.61-6.95.05-9.6S432.14,298.12,427.55,300.77Z" style="fill:#e0e0e0"></path><g style="opacity:0.15"><path d="M427.55,300.77c-4.6,2.65-4.62,7-.06,9.6s12,2.65,16.58,0,4.61-6.95.05-9.6S432.14,298.12,427.55,300.77Z"></path></g><path d="M443.47,274.83c2.44-3,5.28-5.76,7.52-8.95,1.53-2.18,2.81-4.84,2.16-7.42a6.61,6.61,0,0,0-5.25-4.63,10.07,10.07,0,0,0-7.06,1.57,21.84,21.84,0,0,0-5.34,5.08,53,53,0,0,0-11.16,37.86,7.92,7.92,0,0,0,1.39,4.35,4.35,4.35,0,0,0,4.49,1.37c4.09-1.21,3.55-6.74,4.22-10a45.83,45.83,0,0,1,4.7-12.77A44,44,0,0,1,443.47,274.83Z" style="fill:#4C3397"></path><path d="M443.47,274.83c2.44-3,5.28-5.76,7.52-8.95,1.53-2.18,2.81-4.84,2.16-7.42a6.61,6.61,0,0,0-5.25-4.63,10.07,10.07,0,0,0-7.06,1.57,21.84,21.84,0,0,0-5.34,5.08,53,53,0,0,0-11.16,37.86,7.92,7.92,0,0,0,1.39,4.35,4.35,4.35,0,0,0,4.49,1.37c4.09-1.21,3.55-6.74,4.22-10a45.83,45.83,0,0,1,4.7-12.77A44,44,0,0,1,443.47,274.83Z" style="fill:#fff;opacity:0.2"></path><path d="M430,299.94a.35.35,0,0,0,.28-.33c.29-6.57,2.43-29,17.88-41.72a.36.36,0,0,0,.05-.5.35.35,0,0,0-.51-.05c-15.68,12.91-17.84,35.59-18.13,42.23a.36.36,0,0,0,.34.38Z" style="fill:#f0f0f0"></path><path d="M427.71,300.65a11,11,0,0,0,5,7,14.1,14.1,0,0,0,7.59,1.27,33.17,33.17,0,0,0,7.71-1.83c1.24-.41,2.61-1,2.74-2.51a2.73,2.73,0,0,0-.87-2.16c-.25-.24-.52-.47-.8-.69a.79.79,0,0,1,.42-1.42,18.12,18.12,0,0,0,2.2-.28,9.75,9.75,0,0,0,4.61-2.08,7.77,7.77,0,0,0,2.13-3.16,3,3,0,0,0-.3-3.09,3.4,3.4,0,0,0-1.71-.75c-.55-.12-1.1-.22-1.66-.3a.73.73,0,0,1-.17-1.4l2.34-1a4.35,4.35,0,0,0,1.76-1.1,3.82,3.82,0,0,0,.45-3.21c-.28-1.46-.79-2.87-1.13-4.32a9.28,9.28,0,0,1-.15-4.41,37.25,37.25,0,0,0-13.06.87,9.5,9.5,0,0,0-3.56,1.56,5.26,5.26,0,0,0-1.68,4.8.33.33,0,0,1-.63.18l-1.49-2.75a1.78,1.78,0,0,0-2.32-.74,10.8,10.8,0,0,0-3.4,2.68,5.92,5.92,0,0,0-1.46,4.36,38.37,38.37,0,0,0,1.08,6.4.59.59,0,0,1-.92.63l-.07-.05a2,2,0,0,0-1.41-.41c-1.31.16-1.65,1.49-1.74,2.63A22.36,22.36,0,0,0,427.71,300.65Z" style="fill:#4C3397"></path><path d="M427.71,300.65a11,11,0,0,0,5,7,14.1,14.1,0,0,0,7.59,1.27,33.17,33.17,0,0,0,7.71-1.83c1.24-.41,2.61-1,2.74-2.51a2.73,2.73,0,0,0-.87-2.16c-.25-.24-.52-.47-.8-.69a.79.79,0,0,1,.42-1.42,18.12,18.12,0,0,0,2.2-.28,9.75,9.75,0,0,0,4.61-2.08,7.77,7.77,0,0,0,2.13-3.16,3,3,0,0,0-.3-3.09,3.4,3.4,0,0,0-1.71-.75c-.55-.12-1.1-.22-1.66-.3a.73.73,0,0,1-.17-1.4l2.34-1a4.35,4.35,0,0,0,1.76-1.1,3.82,3.82,0,0,0,.45-3.21c-.28-1.46-.79-2.87-1.13-4.32a9.28,9.28,0,0,1-.15-4.41,37.25,37.25,0,0,0-13.06.87,9.5,9.5,0,0,0-3.56,1.56,5.26,5.26,0,0,0-1.68,4.8.33.33,0,0,1-.63.18l-1.49-2.75a1.78,1.78,0,0,0-2.32-.74,10.8,10.8,0,0,0-3.4,2.68,5.92,5.92,0,0,0-1.46,4.36,38.37,38.37,0,0,0,1.08,6.4.59.59,0,0,1-.92.63l-.07-.05a2,2,0,0,0-1.41-.41c-1.31.16-1.65,1.49-1.74,2.63A22.36,22.36,0,0,0,427.71,300.65Z" style="opacity:0.2"></path><path d="M427.71,300.65a11,11,0,0,0,5,7,14.1,14.1,0,0,0,7.59,1.27,33.17,33.17,0,0,0,7.71-1.83c1.24-.41,2.61-1,2.74-2.51a2.73,2.73,0,0,0-.87-2.16c-.25-.24-.52-.47-.8-.69a.79.79,0,0,1,.42-1.42,18.12,18.12,0,0,0,2.2-.28,9.75,9.75,0,0,0,4.61-2.08,7.77,7.77,0,0,0,2.13-3.16,3,3,0,0,0-.3-3.09,3.4,3.4,0,0,0-1.71-.75c-.55-.12-1.1-.22-1.66-.3a.73.73,0,0,1-.17-1.4l2.34-1a4.35,4.35,0,0,0,1.76-1.1,3.82,3.82,0,0,0,.45-3.21c-.28-1.46-.79-2.87-1.13-4.32a9.28,9.28,0,0,1-.15-4.41,37.25,37.25,0,0,0-13.06.87,9.5,9.5,0,0,0-3.56,1.56,5.26,5.26,0,0,0-1.68,4.8.33.33,0,0,1-.63.18l-1.49-2.75a1.78,1.78,0,0,0-2.32-.74,10.8,10.8,0,0,0-3.4,2.68,5.92,5.92,0,0,0-1.46,4.36,38.37,38.37,0,0,0,1.08,6.4.59.59,0,0,1-.92.63l-.07-.05a2,2,0,0,0-1.41-.41c-1.31.16-1.65,1.49-1.74,2.63A22.36,22.36,0,0,0,427.71,300.65Z" style="fill:#fff;opacity:0.2"></path><path d="M434.63,307.25a53,53,0,0,1,3.51-10.17.35.35,0,0,1,.13-.27l.24-.53A32.77,32.77,0,0,0,435,284.62a.35.35,0,0,1,.13-.48.36.36,0,0,1,.49.13,33.12,33.12,0,0,1,3.43,10.83,47.74,47.74,0,0,1,15-18,.35.35,0,0,1,.49.09.35.35,0,0,1-.09.5c-7.54,5.25-12.31,12.54-15.2,18.58a21.93,21.93,0,0,1,12.44-1.68.36.36,0,0,1,0,.7h-.13c-.07,0-6.9-1.25-12.81,2.05a52.87,52.87,0,0,0-3.49,10.08.35.35,0,0,1-.28.28h-.14A.36.36,0,0,1,434.63,307.25Z" style="fill:#f0f0f0"></path><path d="M57.21,312.63l15.83.46,15.83-.46c.69,10.69-1.4,21.59-4.28,26.91h0a7.18,7.18,0,0,1-3.14,3.19c-4.67,2.7-12.22,2.7-16.86,0a7,7,0,0,1-3.13-3.27C58.59,334.11,56.53,323.27,57.21,312.63Z" style="fill:#fff"></path><path d="M61.88,306.15c-6.2,3.58-6.24,9.38-.07,13s16.19,3.58,22.39,0,6.24-9.39.07-13S68.08,302.57,61.88,306.15Z" style="fill:#ebebeb"></path><path d="M64.33,307.57c-4.84,2.8-4.86,7.33,0,10.12s12.63,2.8,17.47,0,4.86-7.32,0-10.12S69.17,304.78,64.33,307.57Z" style="fill:#e0e0e0"></path><g style="opacity:0.15"><path d="M64.33,307.57c-4.84,2.8-4.86,7.33,0,10.12s12.63,2.8,17.47,0,4.86-7.32,0-10.12S69.17,304.78,64.33,307.57Z"></path></g><path d="M47,245.07c35.68,11.68,36,35.55,28,52.55-2,3.44-8.17,5.29-13.51-15.85l9.37,1.2-10.92-5.54L57.07,269l9.11.68-11.56-4.86A171.38,171.38,0,0,0,47,245.07Z" style="fill:#4C3397"></path><path d="M47,245.07c35.68,11.68,36,35.55,28,52.55-2,3.44-8.17,5.29-13.51-15.85l9.37,1.2-10.92-5.54L57.07,269l9.11.68-11.56-4.86A171.38,171.38,0,0,0,47,245.07Z" style="opacity:0.2"></path><path d="M47,245.07c35.68,11.68,36,35.55,28,52.55-2,3.44-8.17,5.29-13.51-15.85l9.37,1.2-10.92-5.54L57.07,269l9.11.68-11.56-4.86A171.38,171.38,0,0,0,47,245.07Z" style="fill:#fff;opacity:0.2"></path><path d="M57.1,251c18.82,14.28,20.51,30.65,15.2,47.74C74.18,283.73,76.21,268.52,57.1,251Z" style="fill:#fff"></path><path d="M107.44,269.32C72.27,274.27,68,296.45,72.67,313.61c1.32,3.55,6.73,6.29,15.22-12.52L79,300.66l11.09-3.34,4-7.43L85.51,289l11.57-2.61A162.14,162.14,0,0,1,107.44,269.32Z" style="fill:#4C3397"></path><path d="M107.44,269.32C72.27,274.27,68,296.45,72.67,313.61c1.32,3.55,6.73,6.29,15.22-12.52L79,300.66l11.09-3.34,4-7.43L85.51,289l11.57-2.61A162.14,162.14,0,0,1,107.44,269.32Z" style="fill:#fff;opacity:0.2"></path><path d="M107.44,269.32C72.27,274.27,68,296.45,72.67,313.61c1.32,3.55,6.73,6.29,15.22-12.52L79,300.66l11.09-3.34,4-7.43L85.51,289l11.57-2.61A162.14,162.14,0,0,1,107.44,269.32Z" style="opacity:0.1"></path><path d="M97.05,273.2C77.16,283.37,72.85,298.34,75,315.14,75.71,300.81,76.35,286.3,97.05,273.2Z" style="fill:#fff"></path><path d="M36.71,277.63c32.26.52,38.59,20,36.3,36-.79,3.34-5.36,6.42-15.12-9.58l8-1.39-10.37-1.77L51,294.68l7.65-1.76L48,291.86A144.87,144.87,0,0,0,36.71,277.63Z" style="fill:#4C3397"></path><path d="M46.51,280c19.08,7,24.63,20,24.61,35.33C68.84,302.46,66.64,289.46,46.51,280Z" style="fill:#fff"></path><path d="M36.71,277.63c32.26.52,38.59,20,36.3,36-.79,3.34-5.36,6.42-15.12-9.58l8-1.39-10.37-1.77L51,294.68l7.65-1.76L48,291.86A144.87,144.87,0,0,0,36.71,277.63Z" style="fill:#fff;opacity:0.2"></path></g><g id="freepik--Clouds--inject-60"><path d="M268.21,50.75c5.31-3.06,9.79-1.56,11.22,3.2a15.72,15.72,0,0,1,5.73-6.38c4.16-2.4,7.54-.47,7.56,4.31v2.19l5.58-3.22c2.92-1.68,5.28-.33,5.29,3a11.57,11.57,0,0,1-5.25,9.1l-47.29,27.3c-2.91,1.68-5.29.34-5.29-3A11.59,11.59,0,0,1,251,78.15l5.59-3.22v-4C256.56,63.49,261.77,54.47,268.21,50.75Z" style="fill:#e6e6e6"></path><polygon points="277.15 60.31 271.44 70.75 274.89 68.76 274.91 76.47 279.47 73.84 279.45 66.13 282.89 64.14 277.15 60.31" style="fill:#455a64"></polygon><polygon points="274.88 77.55 274.89 80.5 279.45 77.87 279.44 74.92 274.88 77.55" style="fill:#455a64"></polygon><polygon points="274.88 81.68 274.89 83.16 279.45 80.53 279.44 79.05 274.88 81.68" style="fill:#455a64"></polygon><polygon points="274.88 84.15 274.89 85.04 279.45 82.41 279.44 81.51 274.88 84.15" style="fill:#455a64"></polygon><g style="opacity:0.5"><polygon points="277.15 60.31 271.44 70.75 274.89 68.76 274.91 76.47 279.47 73.84 279.45 66.13 282.89 64.14 277.15 60.31" style="fill:#fff"></polygon><polygon points="274.88 77.55 274.89 80.5 279.45 77.87 279.44 74.92 274.88 77.55" style="fill:#fff"></polygon><polygon points="274.88 81.68 274.89 83.16 279.45 80.53 279.44 79.05 274.88 81.68" style="fill:#fff"></polygon><polygon points="274.88 84.15 274.89 85.04 279.45 82.41 279.44 81.51 274.88 84.15" style="fill:#fff"></polygon></g><path d="M101.4,70.26c5.88-3.39,10.85-1.73,12.43,3.55a17.4,17.4,0,0,1,6.35-7.07c4.61-2.66,8.36-.53,8.37,4.77v2.43l6.19-3.57c3.23-1.87,5.85-.37,5.86,3.34a12.85,12.85,0,0,1-5.82,10.09L82.38,114.05c-3.22,1.87-5.85.38-5.86-3.33a12.87,12.87,0,0,1,5.83-10.1l6.18-3.57V92.58C88.5,84.38,94.26,74.39,101.4,70.26Z" style="fill:#e6e6e6"></path><polygon points="110.67 114.19 117 102.62 113.18 104.83 113.15 96.28 108.1 99.2 108.13 107.75 104.31 109.95 110.67 114.19" style="fill:#455a64"></polygon><polygon points="113.18 95.09 113.17 91.82 108.12 94.74 108.13 98 113.18 95.09" style="fill:#455a64"></polygon><polygon points="113.18 90.51 113.17 88.87 108.12 91.79 108.13 93.42 113.18 90.51" style="fill:#455a64"></polygon><polygon points="113.18 87.78 113.17 86.79 108.12 89.71 108.13 90.69 113.18 87.78" style="fill:#455a64"></polygon><g style="opacity:0.5"><polygon points="110.67 114.19 117 102.62 113.18 104.83 113.15 96.28 108.1 99.2 108.13 107.75 104.31 109.95 110.67 114.19" style="fill:#fff"></polygon><polygon points="113.18 95.09 113.17 91.82 108.12 94.74 108.13 98 113.18 95.09" style="fill:#fff"></polygon><polygon points="113.18 90.51 113.17 88.87 108.12 91.79 108.13 93.42 113.18 90.51" style="fill:#fff"></polygon><polygon points="113.18 87.78 113.17 86.79 108.12 89.71 108.13 90.69 113.18 87.78" style="fill:#fff"></polygon></g></g><g id="freepik--Gears--inject-60"><path d="M299.07,127.57a2.73,2.73,0,0,1-.25.23A2.73,2.73,0,0,0,299.07,127.57Z" style="fill:none"></path><path d="M289.51,126a7.59,7.59,0,0,0,.69-.36c.24-.14.48-.29.72-.46l.23-.16.47-.36.26-.21.43-.38.26-.24.32-.32c.17-.17.33-.35.5-.53l.29-.33.29-.36c.12-.14.23-.29.35-.44l.21-.28c.13-.18.25-.36.37-.55l.15-.21.48-.78.07-.14c.13-.22.25-.45.37-.67l.12-.23c.12-.25.23-.49.34-.74l0-.09c.12-.28.24-.56.34-.84l.09-.24c.07-.21.14-.41.2-.61s.07-.21.1-.31.1-.37.14-.55.07-.25.1-.38.05-.28.08-.42.07-.4.1-.6.05-.36.07-.54a2.45,2.45,0,0,0,0-.27,7.87,7.87,0,0,0,0-.84,8.64,8.64,0,0,0-.07-1,9.54,9.54,0,0,0-1,.5c-4.18,2.41-7.57,8.27-7.55,13.07a8.67,8.67,0,0,0,.07,1l.15-.06Z" style="fill:none"></path><path d="M302.75,112l.21.19Z" style="fill:none"></path><path d="M291.35,129.91Z" style="fill:none"></path><path d="M297.66,128.75l-.23.17Z" style="fill:none"></path><path d="M302.29,111.61c.08.06.16.1.23.16S302.37,111.67,302.29,111.61Z" style="fill:none"></path><path d="M304,114.35a2.45,2.45,0,0,1,.08.29A2.45,2.45,0,0,0,304,114.35Z" style="fill:none"></path><path d="M304.18,115.17c0,.09,0,.17,0,.26C304.21,115.34,304.19,115.26,304.18,115.17Z" style="fill:none"></path><path d="M303.51,113c.05.09.1.16.14.25C303.61,113.17,303.56,113.1,303.51,113Z" style="fill:none"></path><path d="M303.8,113.64c0,.09.08.18.11.27C303.88,113.82,303.84,113.73,303.8,113.64Z" style="fill:none"></path><path d="M303.16,112.46l.18.23Z" style="fill:none"></path><path d="M304,100.42l.44,0-.44,0Z" style="fill:none"></path><path d="M290.37,107.68l.18-.2h0Z" style="fill:none"></path><path d="M299.9,126.71l-.5.54Z" style="fill:none"></path><path d="M303.3,100.42h0Z" style="fill:none"></path><path d="M303.41,120.81l-.09.25Z" style="fill:none"></path><path d="M281.86,123h0c.05-.19.1-.38.16-.56h0C282,122.63,281.91,122.82,281.86,123Z" style="fill:none"></path><path d="M291.2,106.81l.27-.27h0Z" style="fill:none"></path><path d="M281.41,124.91c0-.25.12-.51.18-.77h0C281.53,124.4,281.46,124.66,281.41,124.91Z" style="fill:none"></path><path d="M293.07,130.4h0Z" style="fill:none"></path><path d="M301.41,124.76h0l.15-.22h0Z" style="fill:none"></path><path d="M302,123.76h0l.07-.13h0Z" style="fill:none"></path><path d="M291.83,130.14l.14.05h0Z" style="fill:none"></path><path d="M302.48,123a2.4,2.4,0,0,0,.11-.23,2.4,2.4,0,0,1-.11.23Z" style="fill:none"></path><path d="M303.85,119.35h0c0-.13.07-.26.1-.39h0C303.92,119.09,303.88,119.22,303.85,119.35Z" style="fill:none"></path><path d="M304.2,117.4c0-.37.06-.74.06-1.1,0,.27,0,.55,0,.83A2.45,2.45,0,0,1,304.2,117.4Z" style="fill:none"></path><path d="M302.94,122h0a1,1,0,0,1,0-.1h0A1,1,0,0,0,302.94,122Z" style="fill:none"></path><path d="M304,118.54h0c0-.2.07-.4.1-.6h0C304.1,118.14,304.07,118.34,304,118.54Z" style="fill:none"></path><path d="M303.61,120.2c0-.1.07-.21.1-.31,0,.1-.06.21-.1.31Z" style="fill:none"></path><path d="M300.83,125.58h0l.21-.28h0Z" style="fill:none"></path><path d="M294.29,130.31l.31-.07h0Z" style="fill:none"></path><path d="M293.66,130.39l.24,0h0Z" style="fill:none"></path><path d="M292.39,130.31l.12,0h0Z" style="fill:none"></path><path d="M294.93,130.15c.18-.05.36-.12.54-.19h0C295.28,130,295.11,130.1,294.93,130.15Z" style="fill:none"></path><path d="M298.13,128.39l-.25.19c.25-.19.5-.39.75-.61l-.24.21Z" style="fill:none"></path><path d="M295.84,129.81a7,7,0,0,0,.87-.43c-.23.13-.47.25-.69.35Z" style="fill:none"></path><path d="M300.19,126.38h0l.29-.36h0Z" style="fill:none"></path><path d="M288.75,140.9l-.61.76,5.85,3.4-1.23-4.57A10.93,10.93,0,0,1,288.75,140.9Z" style="fill:#e0e0e0"></path><path d="M311.93,107.3l4.58-1.26-5.86-3.41-.4,1A10.92,10.92,0,0,1,311.93,107.3Z" style="fill:#e0e0e0"></path><path d="M304.18,115.17c0-.18-.05-.36-.08-.53a2.45,2.45,0,0,0-.08-.29c0-.15-.07-.3-.11-.44s-.07-.18-.11-.27-.09-.26-.15-.38-.09-.16-.14-.25a3.24,3.24,0,0,0-.17-.32l-.18-.23c-.07-.09-.13-.19-.2-.27l-.21-.19a2.5,2.5,0,0,0-.23-.23c-.07-.06-.15-.1-.23-.16a4.67,4.67,0,0,0-4.61-.14,8.64,8.64,0,0,1,.07,1,7.87,7.87,0,0,1,0,.84,2.45,2.45,0,0,1,0,.27c0,.18,0,.36-.07.54s-.06.4-.1.6,0,.28-.08.42-.06.26-.1.38-.09.36-.14.55-.06.2-.1.31-.13.4-.2.61l-.09.24c-.1.28-.22.56-.34.84l0,.09c-.11.25-.22.49-.34.74l-.12.23c-.12.22-.24.45-.37.67l-.07.14-.48.78-.15.21c-.12.19-.24.37-.37.55l-.21.28c-.12.15-.23.3-.35.44l-.29.36-.29.33c-.17.18-.33.36-.5.53l-.32.32-.26.24-.43.38-.26.21-.47.36-.23.16c-.24.17-.48.32-.72.46a7.59,7.59,0,0,1-.69.36l-.18.08-.15.06a4.79,4.79,0,0,0,2.17,3.82h0a3,3,0,0,0,.48.23l.12,0h0l.42.12.11,0h0a3.43,3.43,0,0,0,.56.07h.13a3.53,3.53,0,0,0,.46,0l.22,0h0l.39-.06.3-.07h0l.33-.09c.18-.05.35-.12.53-.18h0a2.87,2.87,0,0,0,.37-.15l.18-.08c.22-.1.46-.22.69-.35l.72-.46.23-.17.22-.17.25-.19.26-.21.24-.21.19-.17a2.73,2.73,0,0,0,.25-.23l.33-.32.5-.54.29-.33h0l.29-.36h0c.12-.14.23-.29.35-.44h0l.21-.28h0l.37-.54h0l.15-.22h0l.48-.78h0l.07-.13h0l.37-.68h0a2.4,2.4,0,0,0,.11-.23c.12-.24.24-.49.35-.73h0a1,1,0,0,1,0-.1h0c.12-.28.23-.55.34-.83l.09-.25c.07-.2.14-.41.2-.61h0c0-.1.07-.21.1-.31s.1-.36.14-.54h0c0-.13.07-.26.1-.39h0c0-.14.05-.28.08-.42h0c0-.2.07-.4.1-.6h0c0-.18.05-.36.07-.54a2.45,2.45,0,0,0,0-.27c0-.28,0-.56,0-.83s0-.59,0-.87C304.21,115.34,304.19,115.26,304.18,115.17Z" style="fill:#e0e0e0"></path><polygon points="278.32 134.9 276.86 135.29 276.21 134.92 274.23 139.99 280.74 143.77 283.12 137.68 278.32 134.9" style="fill:#e0e0e0"></polygon><polygon points="299.74 97.62 304.61 100.45 308.71 95.33 302.2 91.55 298.72 95.89 299.38 96.28 299.74 97.62" style="fill:#e0e0e0"></polygon><path d="M281.44,134.05l-3.12.84,4.8,2.79A10.58,10.58,0,0,1,281.44,134.05Z" style="fill:#e0e0e0"></path><path d="M300.61,100.84a12,12,0,0,1,2.69-.42h.7l.44,0h.17l-4.87-2.83Z" style="fill:#e0e0e0"></path><path d="M281.59,124.14h0c.08-.37.17-.75.27-1.13h0c.05-.19.1-.38.16-.56h0a29.59,29.59,0,0,1,1.05-3.09l-6.51-3.79c0,.1-.08.19-.11.29s-.12.31-.17.47-.21.55-.3.83l-.07.18-.12.4c-.1.31-.19.62-.28.92,0,.09-.06.18-.08.26a2.82,2.82,0,0,0-.07.31c-.11.37-.2.75-.28,1.13l-.09.33-.09.44,6.51,3.78C281.46,124.66,281.53,124.4,281.59,124.14Z" style="fill:#e0e0e0"></path><path d="M288.66,109.65c.55-.68,1.12-1.34,1.71-2l.18-.2h0c.21-.23.43-.45.65-.67l.27-.27h0c.39-.38.79-.76,1.19-1.11l-6.51-3.79c-.4.36-.8.73-1.19,1.12l-.11.1-.53.55-.28.29c-.31.32-.61.66-.91,1v0c-.33.37-.65.76-1,1.15h0Z" style="fill:#e0e0e0"></path><polygon points="281.41 124.92 274.9 121.13 270.33 125.17 276.84 128.95 281.41 124.92" style="fill:#e0e0e0"></polygon><polygon points="276.84 128.95 270.33 125.17 270.35 131.51 276.21 134.92 276.86 135.29 276.84 128.95" style="fill:#e0e0e0"></polygon><polygon points="293.86 99.47 287.35 95.68 286.15 101.64 292.66 105.43 293.86 99.47" style="fill:#e0e0e0"></polygon><polygon points="299.38 96.28 298.72 95.89 292.87 92.5 287.35 95.68 293.86 99.47 299.38 96.28" style="fill:#e0e0e0"></polygon><polygon points="280.67 116.02 274.15 112.24 276.56 115.57 283.07 119.36 280.67 116.02" style="fill:#e0e0e0"></polygon><polygon points="288.67 109.65 282.15 105.87 282.15 105.87 278.05 105.49 284.56 109.28 288.67 109.65" style="fill:#e0e0e0"></polygon><polygon points="284.56 109.28 278.05 105.49 274.15 112.24 280.67 116.02 284.56 109.28" style="fill:#e0e0e0"></polygon><path d="M312,116.43l4.57-4,0-6.35-4.58,1.26a10.92,10.92,0,0,0-1.68-3.64l.4-1,2-5.06-3.92-2.24-4.1,5.12h-.17l-.44,0h-.7a12,12,0,0,0-2.69.42l-.87-3.22-.36-1.34-5.52,3.19-1.2,6c-.4.35-.8.73-1.19,1.11l-.27.27c-.22.22-.44.44-.65.67l-.18.2c-.59.63-1.16,1.29-1.71,2l-4.1-.37-3.9,6.74,2.41,3.34a29.59,29.59,0,0,0-1.05,3.09c-.06.18-.11.37-.16.56-.1.38-.19.76-.27,1.13s-.13.52-.18.77l-4.57,4,0,6.35,1.46-.41,3.12-.84a10.58,10.58,0,0,0,1.68,3.63l-2.38,6.09,3.92,2.23,3.48-4.34.61-.76a10.93,10.93,0,0,0,4-.41l1.23,4.57,5.52-3.19,1.19-6a32.79,32.79,0,0,0,4-4.22l4.11.37,3.89-6.74L310.3,122A32.86,32.86,0,0,0,312,116.43Zm-7.76,1c0,.18,0,.36-.07.54s-.06.4-.1.6,0,.28-.08.42-.07.26-.1.39-.09.36-.14.54-.06.21-.1.31-.13.41-.2.61l-.09.25c-.11.28-.22.55-.34.83a1,1,0,0,0,0,.1c-.11.24-.23.49-.35.73a2.4,2.4,0,0,1-.11.23l-.37.68-.07.13-.48.78-.15.22-.37.54-.21.28c-.12.15-.23.3-.35.44l-.29.36-.29.33-.5.54-.33.32a2.73,2.73,0,0,1-.25.23l-.19.17c-.25.22-.5.42-.75.61l-.22.17-.23.17-.72.46a7,7,0,0,1-.87.43,2.87,2.87,0,0,1-.37.15c-.18.07-.36.14-.54.19l-.33.09-.31.07-.39.06-.24,0a3.53,3.53,0,0,1-.46,0h-.13a3.43,3.43,0,0,1-.56-.07l-.12,0-.42-.12-.14-.05a3,3,0,0,1-.48-.23h0a4.79,4.79,0,0,1-2.17-3.82,8.67,8.67,0,0,1-.07-1c0-4.8,3.37-10.66,7.55-13.07a9.54,9.54,0,0,1,1-.5,4.67,4.67,0,0,1,4.61.14c.08.06.16.1.23.16a2.5,2.5,0,0,1,.23.23l.21.19c.07.08.13.18.2.27l.18.23a3.24,3.24,0,0,1,.17.32c.05.09.1.16.14.25s.1.25.15.38.08.18.11.27.08.29.11.44a2.45,2.45,0,0,1,.08.29c0,.17,0,.35.08.53s0,.17,0,.26c0,.28,0,.57,0,.87S304.23,117,304.2,117.4Z" style="fill:#e0e0e0"></path><path d="M288.75,140.9l-.61.76,5.85,3.4-1.23-4.57A10.93,10.93,0,0,1,288.75,140.9Z" style="opacity:0.2"></path><path d="M311.93,107.3l4.58-1.26-5.86-3.41-.4,1A10.92,10.92,0,0,1,311.93,107.3Z" style="opacity:0.2"></path><path d="M304.18,115.17c0-.18-.05-.36-.08-.53a2.45,2.45,0,0,0-.08-.29c0-.15-.07-.3-.11-.44s-.07-.18-.11-.27-.09-.26-.15-.38-.09-.16-.14-.25a3.24,3.24,0,0,0-.17-.32l-.18-.23c-.07-.09-.13-.19-.2-.27l-.21-.19a2.5,2.5,0,0,0-.23-.23c-.07-.06-.15-.1-.23-.16a4.67,4.67,0,0,0-4.61-.14,8.64,8.64,0,0,1,.07,1,7.87,7.87,0,0,1,0,.84,2.45,2.45,0,0,1,0,.27c0,.18,0,.36-.07.54s-.06.4-.1.6,0,.28-.08.42-.06.26-.1.38-.09.36-.14.55-.06.2-.1.31-.13.4-.2.61l-.09.24c-.1.28-.22.56-.34.84l0,.09c-.11.25-.22.49-.34.74l-.12.23c-.12.22-.24.45-.37.67l-.07.14-.48.78-.15.21c-.12.19-.24.37-.37.55l-.21.28c-.12.15-.23.3-.35.44l-.29.36-.29.33c-.17.18-.33.36-.5.53l-.32.32-.26.24-.43.38-.26.21-.47.36-.23.16c-.24.17-.48.32-.72.46a7.59,7.59,0,0,1-.69.36l-.18.08-.15.06a4.79,4.79,0,0,0,2.17,3.82h0a3,3,0,0,0,.48.23l.12,0h0l.42.12.11,0h0a3.43,3.43,0,0,0,.56.07h.13a3.53,3.53,0,0,0,.46,0l.22,0h0l.39-.06.3-.07h0l.33-.09c.18-.05.35-.12.53-.18h0a2.87,2.87,0,0,0,.37-.15l.18-.08c.22-.1.46-.22.69-.35l.72-.46.23-.17.22-.17.25-.19.26-.21.24-.21.19-.17a2.73,2.73,0,0,0,.25-.23l.33-.32.5-.54.29-.33h0l.29-.36h0c.12-.14.23-.29.35-.44h0l.21-.28h0l.37-.54h0l.15-.22h0l.48-.78h0l.07-.13h0l.37-.68h0a2.4,2.4,0,0,0,.11-.23c.12-.24.24-.49.35-.73h0a1,1,0,0,1,0-.1h0c.12-.28.23-.55.34-.83l.09-.25c.07-.2.14-.41.2-.61h0c0-.1.07-.21.1-.31s.1-.36.14-.54h0c0-.13.07-.26.1-.39h0c0-.14.05-.28.08-.42h0c0-.2.07-.4.1-.6h0c0-.18.05-.36.07-.54a2.45,2.45,0,0,0,0-.27c0-.28,0-.56,0-.83s0-.59,0-.87C304.21,115.34,304.19,115.26,304.18,115.17Z" style="opacity:0.2"></path><polygon points="278.32 134.9 276.86 135.29 276.21 134.92 274.23 139.99 280.74 143.77 283.12 137.68 278.32 134.9" style="opacity:0.2"></polygon><path d="M281.44,134.05l-3.12.84,4.8,2.79A10.58,10.58,0,0,1,281.44,134.05Z" style="opacity:0.2"></path><path d="M300.61,100.84a12,12,0,0,1,2.69-.42h.7l.44,0h.17l-4.87-2.83Z" style="opacity:0.2"></path><path d="M281.59,124.14h0c.08-.37.17-.75.27-1.13h0c.05-.19.1-.38.16-.56h0a29.59,29.59,0,0,1,1.05-3.09l-6.51-3.79c0,.1-.08.19-.11.29s-.12.31-.17.47-.21.55-.3.83l-.07.18-.12.4c-.1.31-.19.62-.28.92,0,.09-.06.18-.08.26a2.82,2.82,0,0,0-.07.31c-.11.37-.2.75-.28,1.13l-.09.33-.09.44,6.51,3.78C281.46,124.66,281.53,124.4,281.59,124.14Z" style="opacity:0.2"></path><polygon points="276.84 128.95 270.33 125.17 270.35 131.51 276.21 134.92 276.86 135.29 276.84 128.95" style="opacity:0.2"></polygon><polygon points="293.86 99.47 287.35 95.68 286.15 101.64 292.66 105.43 293.86 99.47" style="opacity:0.2"></polygon><polygon points="280.67 116.02 274.15 112.24 276.56 115.57 283.07 119.36 280.67 116.02" style="opacity:0.2"></polygon><polygon points="288.67 109.65 282.15 105.87 282.15 105.87 278.05 105.49 284.56 109.28 288.67 109.65" style="opacity:0.2"></polygon><polygon points="299.74 97.62 304.61 100.45 308.71 95.33 302.2 91.55 298.72 95.89 299.38 96.28 299.74 97.62" style="fill:#fff;opacity:0.2"></polygon><path d="M288.66,109.65c.55-.68,1.12-1.34,1.71-2l.18-.2h0c.21-.23.43-.45.65-.67l.27-.27h0c.39-.38.79-.76,1.19-1.11l-6.51-3.79c-.4.36-.8.73-1.19,1.12l-.11.1-.53.55-.28.29c-.31.32-.61.66-.91,1v0c-.33.37-.65.76-1,1.15h0Z" style="fill:#fff;opacity:0.2"></path><polygon points="281.41 124.92 274.9 121.13 270.33 125.17 276.84 128.95 281.41 124.92" style="fill:#fff;opacity:0.2"></polygon><polygon points="299.38 96.28 298.72 95.89 292.87 92.5 287.35 95.68 293.86 99.47 299.38 96.28" style="fill:#fff;opacity:0.2"></polygon><polygon points="284.56 109.28 278.05 105.49 274.15 112.24 280.67 116.02 284.56 109.28" style="fill:#fff;opacity:0.2"></polygon><path d="M341.87,109.45l-.18.17Z" style="fill:none"></path><path d="M335.1,108.31l.49-.26.51-.32.16-.12.34-.25.18-.15.3-.27.18-.17.23-.22c.12-.13.24-.25.35-.38l.21-.24.21-.25.24-.31.15-.2.27-.39.1-.15c.12-.18.23-.36.34-.55a.93.93,0,0,1,.05-.1c.09-.15.18-.31.26-.47l.08-.17c.09-.17.17-.34.25-.52l0-.06c.08-.2.16-.4.23-.59a1.34,1.34,0,0,0,.07-.18c.05-.14.1-.29.14-.43l.07-.22c0-.13.07-.25.1-.38s.05-.18.07-.28l.06-.29c0-.14.05-.28.07-.43s0-.25,0-.38a1.23,1.23,0,0,0,0-.19c0-.2,0-.4,0-.59a5.74,5.74,0,0,0-.05-.74,5.94,5.94,0,0,0-.72.35,11.82,11.82,0,0,0-5.35,9.25c0,.26,0,.51.05.75l.11,0Z" style="fill:none"></path><path d="M344.47,98.43l.14.14Z" style="fill:none"></path><path d="M336.4,111.11Z" style="fill:none"></path><path d="M340.86,110.29a.91.91,0,0,1-.16.11A.91.91,0,0,0,340.86,110.29Z" style="fill:none"></path><path d="M344.14,98.16a1,1,0,0,1,.16.12A1,1,0,0,0,344.14,98.16Z" style="fill:none"></path><path d="M345.37,100.1c0,.07,0,.13.05.2S345.38,100.17,345.37,100.1Z" style="fill:none"></path><path d="M345.48,100.68c0,.06,0,.12,0,.18S345.48,100.74,345.48,100.68Z" style="fill:none"></path><path d="M345,99.15l.1.18Z" style="fill:none"></path><path d="M345.21,99.6a1.08,1.08,0,0,1,.08.19A1.08,1.08,0,0,0,345.21,99.6Z" style="fill:none"></path><path d="M344.76,98.76l.12.16Z" style="fill:none"></path><path d="M345.35,90.24l.31,0-.31,0Z" style="fill:none"></path><path d="M335.71,95.38l.12-.14h0Z" style="fill:none"></path><path d="M342.45,108.84l-.36.38Z" style="fill:none"></path><path d="M344.86,90.24h0Z" style="fill:none"></path><path d="M344.93,104.67l-.06.17Z" style="fill:none"></path><path d="M329.69,106.22h0c0-.14.07-.27.11-.4h0C329.76,106,329.73,106.09,329.69,106.22Z" style="fill:none"></path><path d="M336.3,94.77l.19-.2h0Z" style="fill:none"></path><path d="M329.37,107.57l.12-.54h0Z" style="fill:none"></path><path d="M337.62,111.45h0Z" style="fill:none"></path><path d="M343.52,107.46h0l.1-.15h0Z" style="fill:none"></path><path d="M344,106.76h0a.47.47,0,0,0,.05-.1h0A.47.47,0,0,1,344,106.76Z" style="fill:none"></path><path d="M336.74,111.27l.1,0h0Z" style="fill:none"></path><path d="M344.27,106.18l.09-.16-.09.16Z" style="fill:none"></path><path d="M345.25,103.63h0l.06-.27h0Z" style="fill:none"></path><path d="M345.49,102.25a6.74,6.74,0,0,0,0-.77c0,.19,0,.39,0,.59S345.5,102.19,345.49,102.25Z" style="fill:none"></path><path d="M344.6,105.5h0l0-.07h0Z" style="fill:none"></path><path d="M345.37,103.07h0c0-.15.05-.29.07-.43h0C345.42,102.78,345.4,102.92,345.37,103.07Z" style="fill:none"></path><path d="M345.08,104.24l.06-.22-.06.22Z" style="fill:none"></path><path d="M343.1,108.05h0c.06-.07.1-.14.15-.21h0C343.2,107.91,343.16,108,343.1,108.05Z" style="fill:none"></path><path d="M338.48,111.39l.22,0h0Z" style="fill:none"></path><path d="M338,111.45l.16,0h0Z" style="fill:none"></path><path d="M337.13,111.39l.09,0h-.09Z" style="fill:none"></path><path d="M338.94,111.28l.38-.14h0Z" style="fill:none"></path><path d="M341.2,110l-.18.14c.18-.14.36-.28.53-.43l-.17.14Z" style="fill:none"></path><path d="M339.58,111c.2-.09.4-.19.61-.31-.16.09-.33.18-.49.25Z" style="fill:none"></path><path d="M342.65,108.61h0l.21-.25h0Z" style="fill:none"></path><path d="M334.56,118.88l-.43.54,4.14,2.4-.87-3.23A7.71,7.71,0,0,1,334.56,118.88Z" style="fill:#e0e0e0"></path><path d="M351,95.11l3.24-.89-4.14-2.41-.29.73A7.72,7.72,0,0,1,351,95.11Z" style="fill:#e0e0e0"></path><path d="M345.48,100.68l-.06-.38c0-.07,0-.13-.05-.2s-.05-.21-.08-.31a1.08,1.08,0,0,0-.08-.19,2.15,2.15,0,0,0-.1-.27l-.1-.18a1.71,1.71,0,0,0-.13-.23l-.12-.16-.15-.19-.14-.14c-.06-.05-.11-.11-.17-.15a1,1,0,0,0-.16-.12,3.31,3.31,0,0,0-3.26-.1,5.74,5.74,0,0,1,.05.74c0,.19,0,.39,0,.59a1.23,1.23,0,0,1,0,.19c0,.13,0,.26,0,.38s0,.29-.07.43l-.06.29c0,.1,0,.19-.07.28s-.06.25-.1.38l-.07.22c0,.14-.09.29-.14.43a1.34,1.34,0,0,1-.07.18c-.07.19-.15.39-.23.59l0,.06c-.08.18-.16.35-.25.52l-.08.17c-.08.16-.17.32-.26.47a.93.93,0,0,0-.05.1c-.11.19-.22.37-.34.55l-.1.15-.27.39-.15.2-.24.31-.21.25-.21.24c-.11.13-.23.25-.35.38l-.23.22-.18.17-.3.27-.18.15-.34.25-.16.12-.51.32-.49.26-.13,0-.11,0a3.43,3.43,0,0,0,1.54,2.7h0l.34.16.08,0h0l.29.09h.09a2.58,2.58,0,0,0,.4,0H338l.15,0h0l.28,0,.22,0h0l.24-.06.37-.13h0l.26-.1.12-.06c.16-.07.33-.16.49-.25s.34-.21.51-.33a.91.91,0,0,0,.16-.11l.16-.12.18-.14.18-.15.17-.14.14-.12.18-.17.22-.23.36-.38a2.2,2.2,0,0,0,.2-.23h0l.21-.25h0l.24-.31h0c.06-.07.1-.14.15-.21h0l.27-.38h0l.1-.15h0c.12-.18.23-.37.34-.55h0a.47.47,0,0,0,.05-.1h0c.09-.16.18-.32.26-.48h0l.09-.16.24-.52h0l0-.07h0c.09-.19.16-.39.24-.59l.06-.17.15-.43h0l.06-.22c0-.13.07-.26.11-.39h0l.06-.27h0l.06-.29h0c0-.15.05-.29.07-.43h0c0-.13,0-.26.05-.39s0-.12,0-.18,0-.4,0-.59a6.13,6.13,0,0,0,0-.62C345.5,100.8,345.48,100.74,345.48,100.68Z" style="fill:#e0e0e0"></path><polygon points="327.19 114.63 326.15 114.92 325.69 114.65 324.29 118.23 328.9 120.91 330.58 116.6 327.19 114.63" style="fill:#e0e0e0"></polygon><polygon points="342.34 88.26 345.78 90.26 348.68 86.65 344.07 83.97 341.62 87.04 342.08 87.31 342.34 88.26" style="fill:#e0e0e0"></polygon><path d="M329.39,114l-2.2.6,3.39,2A7.36,7.36,0,0,1,329.39,114Z" style="fill:#e0e0e0"></path><path d="M343,90.54a8.89,8.89,0,0,1,1.91-.3h.49l.31,0h.12l-3.44-2Z" style="fill:#e0e0e0"></path><path d="M329.49,107h0c.06-.27.13-.54.2-.8h0c0-.13.07-.26.11-.39h0c.21-.73.45-1.46.74-2.19l-4.6-2.68a1.8,1.8,0,0,0-.08.21c-.05.11-.08.22-.12.33s-.15.39-.21.58,0,.09,0,.13l-.09.29c-.06.21-.13.43-.2.65a1.21,1.21,0,0,1-.05.18c0,.07,0,.15-.05.22-.08.27-.14.53-.2.8l-.06.24-.06.31,4.6,2.67Z" style="fill:#e0e0e0"></path><path d="M334.5,96.78c.39-.49.79-1,1.21-1.4l.12-.14h0c.15-.16.31-.32.47-.47l.19-.2h0q.4-.41.84-.78l-4.6-2.68c-.29.25-.57.52-.85.79a.46.46,0,0,0-.07.07l-.38.39c-.07.07-.14.13-.2.2-.22.23-.43.47-.64.71h0c-.23.27-.46.54-.68.82h0Z" style="fill:#e0e0e0"></path><polygon points="329.37 107.57 324.77 104.9 321.53 107.75 326.13 110.43 329.37 107.57" style="fill:#e0e0e0"></polygon><polygon points="326.13 110.43 321.53 107.75 321.54 112.24 325.69 114.65 326.15 114.92 326.13 110.43" style="fill:#e0e0e0"></polygon><polygon points="338.18 89.57 333.57 86.89 332.73 91.11 337.33 93.79 338.18 89.57" style="fill:#e0e0e0"></polygon><polygon points="342.08 87.31 341.62 87.04 337.48 84.64 333.57 86.89 338.18 89.57 342.08 87.31" style="fill:#e0e0e0"></polygon><polygon points="328.84 101.28 324.24 98.6 325.94 100.96 330.54 103.64 328.84 101.28" style="fill:#e0e0e0"></polygon><polygon points="334.5 96.78 329.9 94.1 329.9 94.1 326.99 93.83 331.6 96.51 334.5 96.78" style="fill:#e0e0e0"></polygon><path d="M334.56,118.88l-.43.54,4.14,2.4-.87-3.23A7.71,7.71,0,0,1,334.56,118.88Z" style="opacity:0.2"></path><path d="M351,95.11l3.24-.89-4.14-2.41-.29.73A7.72,7.72,0,0,1,351,95.11Z" style="opacity:0.2"></path><path d="M345.48,100.68l-.06-.38c0-.07,0-.13-.05-.2s-.05-.21-.08-.31a1.08,1.08,0,0,0-.08-.19,2.15,2.15,0,0,0-.1-.27l-.1-.18a1.71,1.71,0,0,0-.13-.23l-.12-.16-.15-.19-.14-.14c-.06-.05-.11-.11-.17-.15a1,1,0,0,0-.16-.12,3.31,3.31,0,0,0-3.26-.1,5.74,5.74,0,0,1,.05.74c0,.19,0,.39,0,.59a1.23,1.23,0,0,1,0,.19c0,.13,0,.26,0,.38s0,.29-.07.43l-.06.29c0,.1,0,.19-.07.28s-.06.25-.1.38l-.07.22c0,.14-.09.29-.14.43a1.34,1.34,0,0,1-.07.18c-.07.19-.15.39-.23.59l0,.06c-.08.18-.16.35-.25.52l-.08.17c-.08.16-.17.32-.26.47a.93.93,0,0,0-.05.1c-.11.19-.22.37-.34.55l-.1.15-.27.39-.15.2-.24.31-.21.25-.21.24c-.11.13-.23.25-.35.38l-.23.22-.18.17-.3.27-.18.15-.34.25-.16.12-.51.32-.49.26-.13,0-.11,0a3.43,3.43,0,0,0,1.54,2.7h0l.34.16.08,0h0l.29.09h.09a2.58,2.58,0,0,0,.4,0H338l.15,0h0l.28,0,.22,0h0l.24-.06.37-.13h0l.26-.1.12-.06c.16-.07.33-.16.49-.25s.34-.21.51-.33a.91.91,0,0,0,.16-.11l.16-.12.18-.14.18-.15.17-.14.14-.12.18-.17.22-.23.36-.38a2.2,2.2,0,0,0,.2-.23h0l.21-.25h0l.24-.31h0c.06-.07.1-.14.15-.21h0l.27-.38h0l.1-.15h0c.12-.18.23-.37.34-.55h0a.47.47,0,0,0,.05-.1h0c.09-.16.18-.32.26-.48h0l.09-.16.24-.52h0l0-.07h0c.09-.19.16-.39.24-.59l.06-.17.15-.43h0l.06-.22c0-.13.07-.26.11-.39h0l.06-.27h0l.06-.29h0c0-.15.05-.29.07-.43h0c0-.13,0-.26.05-.39s0-.12,0-.18,0-.4,0-.59a6.13,6.13,0,0,0,0-.62C345.5,100.8,345.48,100.74,345.48,100.68Z" style="opacity:0.2"></path><polygon points="327.19 114.63 326.15 114.92 325.69 114.65 324.29 118.23 328.9 120.91 330.58 116.6 327.19 114.63" style="opacity:0.2"></polygon><path d="M329.39,114l-2.2.6,3.39,2A7.36,7.36,0,0,1,329.39,114Z" style="opacity:0.2"></path><path d="M343,90.54a8.89,8.89,0,0,1,1.91-.3h.49l.31,0h.12l-3.44-2Z" style="opacity:0.2"></path><path d="M329.49,107h0c.06-.27.13-.54.2-.8h0c0-.13.07-.26.11-.39h0c.21-.73.45-1.46.74-2.19l-4.6-2.68a1.8,1.8,0,0,0-.08.21c-.05.11-.08.22-.12.33s-.15.39-.21.58,0,.09,0,.13l-.09.29c-.06.21-.13.43-.2.65a1.21,1.21,0,0,1-.05.18c0,.07,0,.15-.05.22-.08.27-.14.53-.2.8l-.06.24-.06.31,4.6,2.67Z" style="opacity:0.2"></path><polygon points="326.13 110.43 321.53 107.75 321.54 112.24 325.69 114.65 326.15 114.92 326.13 110.43" style="opacity:0.2"></polygon><polygon points="338.18 89.57 333.57 86.89 332.73 91.11 337.33 93.79 338.18 89.57" style="opacity:0.2"></polygon><polygon points="328.84 101.28 324.24 98.6 325.94 100.96 330.54 103.64 328.84 101.28" style="opacity:0.2"></polygon><polygon points="334.5 96.78 329.9 94.1 329.9 94.1 326.99 93.83 331.6 96.51 334.5 96.78" style="opacity:0.2"></polygon><polygon points="331.6 96.51 326.99 93.83 324.24 98.6 328.84 101.28 331.6 96.51" style="fill:#e0e0e0"></polygon><polygon points="342.34 88.26 345.78 90.26 348.68 86.65 344.07 83.97 341.62 87.04 342.08 87.31 342.34 88.26" style="fill:#fff;opacity:0.2"></polygon><path d="M334.5,96.78c.39-.49.79-1,1.21-1.4l.12-.14h0c.15-.16.31-.32.47-.47l.19-.2h0q.4-.41.84-.78l-4.6-2.68c-.29.25-.57.52-.85.79a.46.46,0,0,0-.07.07l-.38.39c-.07.07-.14.13-.2.2-.22.23-.43.47-.64.71h0c-.23.27-.46.54-.68.82h0Z" style="fill:#fff;opacity:0.2"></path><polygon points="329.37 107.57 324.77 104.9 321.53 107.75 326.13 110.43 329.37 107.57" style="fill:#fff;opacity:0.2"></polygon><polygon points="342.08 87.31 341.62 87.04 337.48 84.64 333.57 86.89 338.18 89.57 342.08 87.31" style="fill:#fff;opacity:0.2"></polygon><polygon points="331.6 96.51 326.99 93.83 324.24 98.6 328.84 101.28 331.6 96.51" style="fill:#fff;opacity:0.2"></polygon><path d="M351,101.57l3.24-2.86,0-4.49-3.24.89a7.72,7.72,0,0,0-1.19-2.57l.29-.73,1.39-3.58-2.77-1.58-2.9,3.61h-.12l-.31,0h-.49a8.89,8.89,0,0,0-1.91.3l-.61-2.28-.26-1-3.9,2.26-.85,4.22q-.43.38-.84.78l-.19.2c-.16.15-.32.31-.47.47l-.12.14c-.42.45-.82.91-1.21,1.4l-2.9-.27-2.76,4.77,1.7,2.36c-.29.73-.53,1.46-.74,2.19,0,.13-.07.26-.11.4s-.14.53-.2.8l-.12.54-3.24,2.86,0,4.49,1-.29,2.2-.6a7.36,7.36,0,0,0,1.19,2.57l-1.68,4.31,2.77,1.58,2.46-3.07.43-.54a7.71,7.71,0,0,0,2.84-.29l.87,3.23,3.9-2.25.85-4.22a24.35,24.35,0,0,0,2.83-3l2.9.26,2.76-4.77-1.7-2.36A23.43,23.43,0,0,0,351,101.57Zm-5.49.68c0,.13,0,.26-.05.39s0,.28-.07.43l-.06.29-.06.27c0,.13-.07.26-.11.39l-.06.22-.15.43-.06.17c-.08.2-.15.4-.24.59l0,.07-.24.52-.09.16c-.08.16-.17.32-.26.48a.47.47,0,0,1-.05.1c-.11.18-.22.37-.34.55l-.1.15-.27.38c-.05.07-.09.14-.15.21l-.24.31-.21.25a2.2,2.2,0,0,1-.2.23l-.36.38-.22.23-.18.17-.14.12c-.17.15-.35.29-.53.43l-.16.12a.91.91,0,0,1-.16.11q-.26.18-.51.33c-.21.12-.41.22-.61.31l-.26.1-.38.14-.24.06-.22,0-.28,0-.16,0h-.42a2.58,2.58,0,0,1-.4,0l-.09,0-.29-.09-.1,0-.34-.16h0a3.43,3.43,0,0,1-1.54-2.7c0-.24,0-.49-.05-.75a11.82,11.82,0,0,1,5.35-9.25,5.94,5.94,0,0,1,.72-.35,3.31,3.31,0,0,1,3.26.1,1,1,0,0,1,.16.12c.06,0,.11.1.17.15l.14.14.15.19.12.16a1.71,1.71,0,0,1,.13.23l.1.18a2.15,2.15,0,0,1,.1.27,1.08,1.08,0,0,1,.08.19c0,.1,0,.2.08.31s0,.13.05.2l.06.38c0,.06,0,.12,0,.18a6.13,6.13,0,0,1,0,.62A6.74,6.74,0,0,1,345.49,102.25Z" style="fill:#e0e0e0"></path></g><g id="freepik--Device--inject-60"><path d="M226.33,77.19h0c-.8-2.79-6.48-8.11-12.12-8a5.27,5.27,0,0,0-1.59.31L103,131.9a10.58,10.58,0,0,0-5.3,9.12V378.27c0,6,7,11.81,13.51,9l0,0a2.47,2.47,0,0,0,.42-.17l109.69-62.5a10.52,10.52,0,0,0,5.3-9.12V78.33A2.66,2.66,0,0,0,226.33,77.19Z" style="fill:#455a64"></path><path d="M113,166.09a5.26,5.26,0,0,1,2.65-4.56l101.84-57.94a2.62,2.62,0,0,1,3.92,2.28V297.18a5.27,5.27,0,0,1-2.65,4.56l-101.84,58A2.62,2.62,0,0,1,113,357.5Z" style="fill:#4C3397"></path><path d="M113,166.09a5.26,5.26,0,0,1,2.65-4.56l101.84-57.94a2.62,2.62,0,0,1,3.92,2.28V297.18a5.27,5.27,0,0,1-2.65,4.56l-101.84,58A2.62,2.62,0,0,1,113,357.5Z" style="opacity:0.2"></path><path d="M97.65,141V378.27c0,6,7,11.81,13.51,9l0,0a2.61,2.61,0,0,1-3.5-2.45V147.57a10.48,10.48,0,0,1,1.77-5.79l-10.74-5.37A10.52,10.52,0,0,0,97.65,141Z" style="opacity:0.30000000000000004"></path><path d="M214.22,69.18a5.27,5.27,0,0,0-1.59.31L103,131.9a10.48,10.48,0,0,0-4.22,4.51l10.74,5.37a10.63,10.63,0,0,1,3.53-3.33l109.69-62.4a2.62,2.62,0,0,1,3.64,1.14h0C225.54,74.39,219.86,69.07,214.22,69.18Z" style="fill:#fff;opacity:0.1"></path><path d="M180.67,115.23c.77-.45,1.41-.1,1.41.78a3.08,3.08,0,0,1-1.4,2.43l-21.52,12.43c-.77.44-1.39.07-1.39-.82a3,3,0,0,1,1.38-2.4Z" style="fill:#263238"></path><path d="M153.63,130.84c.77-.44,1.39-.09,1.39.8a3.1,3.1,0,0,1-1.38,2.42c-.77.44-1.41.08-1.42-.81A3.11,3.11,0,0,1,153.63,130.84Z" style="fill:#263238"></path><path d="M167.4,113.42c1.54-.89,2.78-.18,2.79,1.59a6.16,6.16,0,0,1-2.77,4.83c-1.54.89-2.82.16-2.82-1.6A6.15,6.15,0,0,1,167.4,113.42Z" style="fill:#263238"></path><path d="M167.41,336.78c3.13-1.81,5.66-.37,5.67,3.23a12.53,12.53,0,0,1-5.63,9.84c-3.14,1.81-5.74.33-5.75-3.27A12.5,12.5,0,0,1,167.41,336.78Z" style="fill:#263238"></path></g><g id="freepik--Screen--inject-60"><path d="M258.49,127h0c-.72-2.53-5.87-7.36-11-7.26a4.63,4.63,0,0,0-1.44.29L146.5,176.61a9.68,9.68,0,0,0-4.81,8.28V400.24c0,5.48,6.33,10.72,12.26,8.2l0,0a3.12,3.12,0,0,0,.39-.15l99.56-56.74a9.52,9.52,0,0,0,4.81-8.27V128A2.35,2.35,0,0,0,258.49,127Z" style="fill:#4C3397"></path><path d="M141.69,184.89V400.24c0,5.48,6.33,10.72,12.26,8.2l0,0a2.36,2.36,0,0,1-3.17-2.22V190.84a9.48,9.48,0,0,1,1.6-5.26l-9.74-4.87A9.45,9.45,0,0,0,141.69,184.89Z" style="fill:#fff;opacity:0.2"></path><path d="M247.5,119.68a4.63,4.63,0,0,0-1.44.29L146.5,176.61a9.5,9.5,0,0,0-3.82,4.1l9.74,4.87a9.58,9.58,0,0,1,3.21-3l99.56-56.64a2.36,2.36,0,0,1,3.3,1h0C257.78,124.41,252.63,119.58,247.5,119.68Z" style="fill:#fff;opacity:0.4"></path><path d="M258.49,127h0c-.72-2.53-5.87-7.36-11-7.26a4.63,4.63,0,0,0-1.44.29L146.5,176.61a9.68,9.68,0,0,0-4.81,8.28V400.24c0,5.48,6.33,10.72,12.26,8.2l0,0a3.12,3.12,0,0,0,.39-.15l99.56-56.74a9.52,9.52,0,0,0,4.81-8.27V128A2.35,2.35,0,0,0,258.49,127Z" style="fill:#fff;opacity:0.30000000000000004"></path><path d="M241.19,180.94a4.47,4.47,0,0,1,3.51-.65c1.35.43,2.23,1.81,2.23,3.92l0,12.08a12.1,12.1,0,0,1-2.21,6.48,11.19,11.19,0,0,1-3.5,3.4,4.44,4.44,0,0,1-3.5.64c-1.36-.42-2.23-1.8-2.24-3.92l0-12.07a12,12,0,0,1,2.21-6.49A11,11,0,0,1,241.19,180.94Z" style="fill:#4C3397"></path><path d="M241.15,166.32c1.93-1.12,3.51-.22,3.51,2l0,12a4.47,4.47,0,0,0-3.51.65,11,11,0,0,0-3.49,3.39l0-12A7.7,7.7,0,0,1,241.15,166.32Z" style="fill:#fff;opacity:0.30000000000000004"></path><path d="M244.76,202.77l.13,45.39a7.69,7.69,0,0,1-3.49,6.05c-1.93,1.12-3.51.22-3.51-2l-.13-45.39a4.44,4.44,0,0,0,3.5-.64A11.19,11.19,0,0,0,244.76,202.77Z" style="fill:#4C3397"></path><path d="M224.26,176.06c1.93-1.11,3.51-.21,3.51,2l.1,33.33a4.47,4.47,0,0,0-3.51.65,11.15,11.15,0,0,0-3.5,3.39l-.09-33.32A7.71,7.71,0,0,1,224.26,176.06Z" style="fill:#fff;opacity:0.30000000000000004"></path><path d="M224.36,212.05a4.47,4.47,0,0,1,3.51-.65c1.35.42,2.23,1.8,2.24,3.92l0,12.06a12,12,0,0,1-2.21,6.49,11.23,11.23,0,0,1-3.49,3.39,4.39,4.39,0,0,1-3.51.65c-1.36-.42-2.24-1.8-2.24-3.91l0-12.07a12.11,12.11,0,0,1,2.21-6.49A11.15,11.15,0,0,1,224.36,212.05Z" style="fill:#4C3397"></path><path d="M220.93,237.91a4.39,4.39,0,0,0,3.51-.65,11.23,11.23,0,0,0,3.49-3.39l.07,24a7.71,7.71,0,0,1-3.49,6c-1.93,1.12-3.51.22-3.51-2Z" style="fill:#4C3397"></path><path d="M207.39,193.17a4.45,4.45,0,0,1,3.5-.65c1.36.42,2.24,1.8,2.24,3.92l0,12.08A12.07,12.07,0,0,1,211,215a11.19,11.19,0,0,1-3.5,3.4A4.42,4.42,0,0,1,204,219c-1.35-.42-2.22-1.8-2.23-3.91l0-12.08a12,12,0,0,1,2.2-6.48A11.19,11.19,0,0,1,207.39,193.17Z" style="fill:#4C3397"></path><path d="M207.37,185.82c1.93-1.11,3.5-.22,3.51,2v4.69a4.45,4.45,0,0,0-3.5.65,11.19,11.19,0,0,0-3.5,3.4v-4.7A7.69,7.69,0,0,1,207.37,185.82Z" style="fill:#fff;opacity:0.30000000000000004"></path><path d="M204,219a4.42,4.42,0,0,0,3.51-.64A11.19,11.19,0,0,0,211,215l.15,52.67a7.7,7.7,0,0,1-3.49,6c-1.93,1.12-3.51.22-3.52-2Z" style="fill:#4C3397"></path><path d="M187.17,267.79a4.47,4.47,0,0,0,3.51-.65,11,11,0,0,0,3.49-3.39l0,13.67a7.7,7.7,0,0,1-3.48,6.05c-1.94,1.11-3.51.22-3.52-2Z" style="fill:#4C3397"></path><path d="M190.61,241.92a4.45,4.45,0,0,1,3.5-.65c1.36.43,2.23,1.8,2.24,3.92l0,12.07a12,12,0,0,1-2.21,6.49,11,11,0,0,1-3.49,3.39,4.47,4.47,0,0,1-3.51.65c-1.35-.43-2.23-1.81-2.23-3.92l0-12.07a12.07,12.07,0,0,1,2.21-6.48A11.08,11.08,0,0,1,190.61,241.92Z" style="fill:#4C3397"></path><path d="M190.48,195.57c1.93-1.12,3.5-.21,3.51,2l.12,43.69a4.45,4.45,0,0,0-3.5.65,11.08,11.08,0,0,0-3.5,3.4l-.13-43.7A7.72,7.72,0,0,1,190.48,195.57Z" style="fill:#fff;opacity:0.30000000000000004"></path><path d="M173.65,228.7a4.45,4.45,0,0,1,3.5-.65c1.36.42,2.24,1.8,2.24,3.92l0,12.06a12.08,12.08,0,0,1-2.21,6.49,11.15,11.15,0,0,1-3.5,3.39,4.39,4.39,0,0,1-3.51.65c-1.35-.42-2.22-1.8-2.23-3.92l0-12.06a12,12,0,0,1,2.2-6.49A11.15,11.15,0,0,1,173.65,228.7Z" style="fill:#4C3397"></path><path d="M241.19,180.94a4.47,4.47,0,0,1,3.51-.65c1.35.43,2.23,1.81,2.23,3.92l0,12.08a12.1,12.1,0,0,1-2.21,6.48,11.19,11.19,0,0,1-3.5,3.4,4.44,4.44,0,0,1-3.5.64c-1.36-.42-2.23-1.8-2.24-3.92l0-12.07a12,12,0,0,1,2.21-6.49A11,11,0,0,1,241.19,180.94Z" style="opacity:0.30000000000000004"></path><path d="M224.36,212.05a4.47,4.47,0,0,1,3.51-.65c1.35.42,2.23,1.8,2.24,3.92l0,12.06a12,12,0,0,1-2.21,6.49,11.23,11.23,0,0,1-3.49,3.39,4.39,4.39,0,0,1-3.51.65c-1.36-.42-2.24-1.8-2.24-3.91l0-12.07a12.11,12.11,0,0,1,2.21-6.49A11.15,11.15,0,0,1,224.36,212.05Z" style="opacity:0.30000000000000004"></path><path d="M207.39,193.17a4.45,4.45,0,0,1,3.5-.65c1.36.42,2.24,1.8,2.24,3.92l0,12.08A12.07,12.07,0,0,1,211,215a11.19,11.19,0,0,1-3.5,3.4A4.42,4.42,0,0,1,204,219c-1.35-.42-2.22-1.8-2.23-3.91l0-12.08a12,12,0,0,1,2.2-6.48A11.19,11.19,0,0,1,207.39,193.17Z" style="opacity:0.30000000000000004"></path><g style="opacity:0.30000000000000004"><path d="M190.61,241.92a4.45,4.45,0,0,1,3.5-.65c1.36.43,2.23,1.8,2.24,3.92l0,12.07a12,12,0,0,1-2.21,6.49,11,11,0,0,1-3.49,3.39,4.47,4.47,0,0,1-3.51.65c-1.35-.43-2.23-1.81-2.23-3.92l0-12.07a12.07,12.07,0,0,1,2.21-6.48A11.08,11.08,0,0,1,190.61,241.92Z"></path></g><path d="M173.65,228.7a4.45,4.45,0,0,1,3.5-.65c1.36.42,2.24,1.8,2.24,3.92l0,12.06a12.08,12.08,0,0,1-2.21,6.49,11.15,11.15,0,0,1-3.5,3.39,4.39,4.39,0,0,1-3.51.65c-1.35-.42-2.22-1.8-2.23-3.92l0-12.06a12,12,0,0,1,2.2-6.49A11.15,11.15,0,0,1,173.65,228.7Z" style="opacity:0.30000000000000004"></path><path d="M173.58,205.32c1.94-1.11,3.51-.21,3.51,2l.06,20.72a4.45,4.45,0,0,0-3.5.65,11.15,11.15,0,0,0-3.5,3.39l-.06-20.72A7.71,7.71,0,0,1,173.58,205.32Z" style="fill:#fff;opacity:0.30000000000000004"></path><path d="M170.21,254.56a4.39,4.39,0,0,0,3.51-.65,11.15,11.15,0,0,0,3.5-3.39l.1,36.65a7.67,7.67,0,0,1-3.49,6.05c-1.93,1.12-3.51.22-3.51-2Z" style="fill:#4C3397"></path><polygon points="199.72 290.07 167.95 308.41 167.97 316.74 199.75 298.4 199.72 290.07" style="fill:#fff"></polygon><path d="M245.06,334.12l-6.43,3.71c1.21.17,2,1.25,2,3a9.13,9.13,0,0,1-2,5.33l6.43-3.71a8,8,0,0,0,3.61-6.26C248.68,333.9,247.06,333,245.06,334.12Z" style="fill:#4C3397"></path><path d="M238.09,328.31a9.26,9.26,0,0,1,2-5.32l-6.48,3.74A7.94,7.94,0,0,0,230,333c0,2.3,1.63,3.22,3.63,2.06l6.48-3.74C238.9,331.14,238.1,330.07,238.09,328.31Z" style="fill:#fff"></path><path d="M238.05,314.34a9.24,9.24,0,0,1,2-5.32l-6.48,3.74A7.92,7.92,0,0,0,230,319c0,2.29,1.63,3.22,3.63,2.06l6.48-3.74C238.87,317.17,238.06,316.09,238.05,314.34Z" style="fill:#fff"></path><path d="M240.54,298.9a9.27,9.27,0,0,1-2,5.33l6.42-3.71a8,8,0,0,0,3.61-6.26c0-2.29-1.63-3.22-3.63-2.06l-6.43,3.71C239.72,296.08,240.53,297.15,240.54,298.9Z" style="fill:#4C3397"></path><path d="M238,286.39a9.21,9.21,0,0,1,2-5.33l-6.49,3.75a7.92,7.92,0,0,0-3.61,6.25c0,2.3,1.63,3.23,3.63,2.07l6.48-3.74C238.79,289.22,238,288.14,238,286.39Z" style="fill:#fff"></path><path d="M240.46,271a9.26,9.26,0,0,1-2,5.33l6.43-3.72a7.92,7.92,0,0,0,3.61-6.25c0-2.3-1.63-3.23-3.63-2.07L238.42,268C239.64,268.12,240.45,269.2,240.46,271Z" style="fill:#4C3397"></path><path d="M238.63,337.83a3.59,3.59,0,0,0-2.26.56l-3,1.71a9.35,9.35,0,0,0-4.25,7.36c0,2.71,1.92,3.8,4.27,2.44l3-1.7a8.12,8.12,0,0,0,2.25-2,9.13,9.13,0,0,0,2-5.33C240.65,339.08,239.84,338,238.63,337.83Z" style="fill:#4C3397"></path><path d="M245.3,319.24l-3,1.71a7.85,7.85,0,0,0-2.25,2,9.26,9.26,0,0,0-2,5.32c0,1.76.81,2.83,2,3a3.59,3.59,0,0,0,2.26-.56l3-1.7a9.37,9.37,0,0,0,4.25-7.37C249.57,319,247.66,317.88,245.3,319.24Z" style="fill:#4C3397"></path><path d="M245.26,305.27l-3,1.7a7.89,7.89,0,0,0-2.25,2,9.24,9.24,0,0,0-2,5.32c0,1.75.82,2.83,2,3a3.59,3.59,0,0,0,2.26-.56l3-1.71a9.35,9.35,0,0,0,4.25-7.36C249.53,305,247.62,303.91,245.26,305.27Z" style="fill:#4C3397"></path><path d="M233.33,308l2.95-1.71a7.87,7.87,0,0,0,2.26-2,9.27,9.27,0,0,0,2-5.33c0-1.75-.82-2.82-2-3a3.61,3.61,0,0,0-2.26.56l-2.95,1.71a9.34,9.34,0,0,0-4.25,7.36C229.06,308.25,231,309.34,233.33,308Z" style="fill:#4C3397"></path><path d="M245.18,277.32l-3,1.71a7.91,7.91,0,0,0-2.24,2,9.21,9.21,0,0,0-2,5.33c0,1.75.82,2.83,2,3a3.59,3.59,0,0,0,2.26-.56l3-1.71a9.34,9.34,0,0,0,4.25-7.37C249.45,277.05,247.54,276,245.18,277.32Z" style="fill:#4C3397"></path><path d="M233.25,280l2.95-1.71a8,8,0,0,0,2.25-2,9.26,9.26,0,0,0,2-5.33c0-1.76-.82-2.84-2-3a3.64,3.64,0,0,0-2.25.56l-2.95,1.71a9.34,9.34,0,0,0-4.25,7.36C229,280.29,230.89,281.39,233.25,280Z" style="fill:#4C3397"></path><g style="opacity:0.30000000000000004"><path d="M238.63,337.83a3.59,3.59,0,0,0-2.26.56l-3,1.71a9.35,9.35,0,0,0-4.25,7.36c0,2.71,1.92,3.8,4.27,2.44l3-1.7a8.12,8.12,0,0,0,2.25-2,9.13,9.13,0,0,0,2-5.33C240.65,339.08,239.84,338,238.63,337.83Z"></path><path d="M245.3,319.24l-3,1.71a7.85,7.85,0,0,0-2.25,2,9.26,9.26,0,0,0-2,5.32c0,1.76.81,2.83,2,3a3.59,3.59,0,0,0,2.26-.56l3-1.7a9.37,9.37,0,0,0,4.25-7.37C249.57,319,247.66,317.88,245.3,319.24Z"></path><path d="M245.26,305.27l-3,1.7a7.89,7.89,0,0,0-2.25,2,9.24,9.24,0,0,0-2,5.32c0,1.75.82,2.83,2,3a3.59,3.59,0,0,0,2.26-.56l3-1.71a9.35,9.35,0,0,0,4.25-7.36C249.53,305,247.62,303.91,245.26,305.27Z"></path><path d="M233.33,308l2.95-1.71a7.87,7.87,0,0,0,2.26-2,9.27,9.27,0,0,0,2-5.33c0-1.75-.82-2.82-2-3a3.61,3.61,0,0,0-2.26.56l-2.95,1.71a9.34,9.34,0,0,0-4.25,7.36C229.06,308.25,231,309.34,233.33,308Z"></path><path d="M245.18,277.32l-3,1.71a7.91,7.91,0,0,0-2.24,2,9.21,9.21,0,0,0-2,5.33c0,1.75.82,2.83,2,3a3.59,3.59,0,0,0,2.26-.56l3-1.71a9.34,9.34,0,0,0,4.25-7.37C249.45,277.05,247.54,276,245.18,277.32Z"></path><path d="M233.25,280l2.95-1.71a8,8,0,0,0,2.25-2,9.26,9.26,0,0,0,2-5.33c0-1.76-.82-2.84-2-3a3.64,3.64,0,0,0-2.25.56l-2.95,1.71a9.34,9.34,0,0,0-4.25,7.36C229,280.29,230.89,281.39,233.25,280Z"></path></g><polygon points="168.15 378.29 168.17 386.62 206.98 364.21 206.96 355.88 168.15 378.29" style="fill:#fff"></polygon><polygon points="199.88 345.97 168.1 364.32 168.13 372.64 199.9 354.29 199.88 345.97" style="fill:#fff"></polygon><polygon points="203.81 329.71 168.06 350.34 168.09 358.66 203.83 338.03 203.81 329.71" style="fill:#fff"></polygon><polygon points="190.88 323.17 168.03 336.37 168.05 344.69 190.9 331.5 190.88 323.17" style="fill:#fff"></polygon><polygon points="206.8 299.98 167.99 322.39 168.01 330.71 206.82 308.31 206.8 299.98" style="fill:#fff"></polygon><path d="M186.2,176.37a5.79,5.79,0,0,1,3.09-.92l-.73,2.47a4.44,4.44,0,0,0-2.36.62c-1,.58-1.38,1.18-1.37,1.66,0,1.5,4.83-2.41,4.84,1.2,0,1.71-1.24,3.88-3.76,5.34a6,6,0,0,1-3.59,1l.77-2.5a4.45,4.45,0,0,0,2.82-.66c1-.57,1.38-1.12,1.38-1.6,0-1.55-4.84,2.38-4.85-1.25C182.44,180,183.68,177.83,186.2,176.37Z" style="fill:#fff"></path><polygon points="197.43 170.09 197.44 172.23 193.15 174.71 193.15 176.35 196.93 174.17 196.94 176.24 193.16 178.42 193.16 180.21 197.62 177.64 197.62 179.78 190.79 183.73 190.76 173.94 197.43 170.09" style="fill:#fff"></polygon><polygon points="205.75 165.28 205.76 167.48 203.16 168.98 203.18 176.57 200.77 177.96 200.75 170.37 198.14 171.88 198.13 169.69 205.75 165.28" style="fill:#fff"></polygon><polygon points="213.6 160.75 213.61 162.95 211.01 164.45 211.03 172.04 208.62 173.43 208.6 165.84 205.99 167.35 205.98 165.15 213.6 160.75" style="fill:#fff"></polygon><polygon points="216.92 158.84 216.94 168.63 214.53 170.02 214.51 160.23 216.92 158.84" style="fill:#fff"></polygon><polygon points="226.74 153.17 226.76 162.96 224.78 164.1 221.01 161.06 221.02 166.27 218.66 167.63 218.63 157.85 220.62 156.7 224.39 159.75 224.37 154.54 226.74 153.17" style="fill:#fff"></polygon><path d="M232.75,149.5c1.59-.92,2.89-1,3.73-.36L235,151.62a1.82,1.82,0,0,0-2.07.11,4.91,4.91,0,0,0-2.42,4.19c0,1.66,1,2.24,2.4,1.41a5.11,5.11,0,0,0,1.31-1.08v-2.68l2.13-1.23v4.06a11.89,11.89,0,0,1-3.57,3.3c-2.72,1.57-4.7.6-4.71-2.37A9.63,9.63,0,0,1,232.75,149.5Z" style="fill:#fff"></path><path d="M241.13,144.66a5.63,5.63,0,0,1,3.1-.92l-.74,2.47a4.44,4.44,0,0,0-2.36.62c-1,.58-1.38,1.18-1.38,1.66,0,1.5,4.84-2.41,4.85,1.2,0,1.71-1.23,3.87-3.77,5.33a5.92,5.92,0,0,1-3.59,1l.79-2.51a4.41,4.41,0,0,0,2.81-.66c1-.57,1.39-1.11,1.39-1.59,0-1.56-4.85,2.38-4.86-1.25C237.36,148.27,238.6,146.12,241.13,144.66Z" style="fill:#fff"></path><path d="M177.83,186.37l1.53-1.35v-2.13l-1.54.42a3.72,3.72,0,0,0-.56-1.22l.13-.35.66-1.7-1.31-.75L175.36,181h-.44a3.65,3.65,0,0,0-.9.14l-.29-1.08-.12-.45-1.86,1.07-.4,2-.4.37-.09.1-.22.22-.06.07q-.3.31-.57.66l-1.38-.13-1.31,2.27.81,1.12a9.77,9.77,0,0,0-.35,1l-.06.18-.09.38-.06.26L166,190.58v2.13l.5-.13,1-.29a3.81,3.81,0,0,0,.56,1.22l-.79,2.05,1.31.75,1.17-1.46.21-.26a3.74,3.74,0,0,0,1.34-.13l.41,1.53,1.86-1.07.4-2a10.65,10.65,0,0,0,1.34-1.42l1.38.12,1.31-2.26-.81-1.12A11.07,11.07,0,0,0,177.83,186.37Zm-2.61.33a1.1,1.1,0,0,1,0,.18l0,.21,0,.13,0,.13c0,.07,0,.13-.05.19l0,.1c0,.07-.05.14-.07.21l0,.08c0,.09-.07.19-.11.28l0,0c0,.08-.07.17-.12.25l0,.07a1.71,1.71,0,0,1-.13.23l0,.05-.16.26-.05.07-.13.18a.86.86,0,0,1-.07.1l-.11.15-.1.12-.1.11-.17.18a1.14,1.14,0,0,0-.11.11l-.08.07-.07.06-.25.21-.07,0-.08.06-.24.15-.29.15-.13,0-.18.06-.11,0-.1,0-.14,0h-.27a1.08,1.08,0,0,1-.19,0h0l-.14,0-.05,0-.16-.08h0a1.6,1.6,0,0,1-.73-1.28c0-.11,0-.23,0-.35a5.58,5.58,0,0,1,2.53-4.39l.34-.17a1.55,1.55,0,0,1,1.55,0l.08.05.08.08.07.06.07.09s0,.05.05.08a.39.39,0,0,1,.06.11.35.35,0,0,1,0,.08s0,.09.05.13l0,.09,0,.15,0,.09,0,.18s0,.06,0,.09a2.71,2.71,0,0,1,0,.29A2.3,2.3,0,0,1,175.22,186.7Z" style="fill:#fff"></path></g><g id="freepik--character-2--inject-60"><path d="M351.69,372.65a8.59,8.59,0,0,0,6.47,2.38,19.53,19.53,0,0,0,6.84-1.72c2.19-.9,4.94-3.42,7.3-3.37a56.91,56.91,0,0,0,6.92-.48,36.21,36.21,0,0,0-1-9.37l-11.05-.29c-3,4.08-8.78,7.48-13.17,8.75a3.86,3.86,0,0,0-2.72,2.91v.07A4.52,4.52,0,0,0,351.69,372.65Z" style="fill:#4C3397"></path><path d="M372.3,369.94c-2.36-.05-5.11,2.47-7.3,3.37a19.53,19.53,0,0,1-6.84,1.72,8.59,8.59,0,0,1-6.47-2.38,4.52,4.52,0,0,1-.39-1.12v-.07a3.47,3.47,0,0,0,0,1.47,4.73,4.73,0,0,0,.39,1.13,8.62,8.62,0,0,0,6.47,2.37,19.53,19.53,0,0,0,6.84-1.72c2.19-.9,4.94-3.42,7.3-3.37a50.27,50.27,0,0,0,6.81-.4c.06-.49.09-1,.11-1.48A56.91,56.91,0,0,1,372.3,369.94Z" style="fill:#263238"></path><path d="M406.34,378.81a17.28,17.28,0,0,1-.36,3.59,8.29,8.29,0,0,1-3.28,5.24,10.51,10.51,0,0,1-5.23,1.39,11.5,11.5,0,0,1-4.78-.49,5.42,5.42,0,0,1-2.79-2.28.13.13,0,0,0,0,.06,5,5,0,0,0,3.22,3.35,11.5,11.5,0,0,0,4.78.49,10.55,10.55,0,0,0,5.22-1.39,8.33,8.33,0,0,0,3.29-5.24,17.37,17.37,0,0,0,.35-3.6,6.05,6.05,0,0,1,1.93-4.39,11.43,11.43,0,0,0,.84-.87,2.07,2.07,0,0,0,.51-1.56c0-.23,0-.45-.07-.66-.43.51-1.46,1.72-1.71,2A6.07,6.07,0,0,0,406.34,378.81Z" style="fill:#263238"></path><path d="M397.27,366.28a13.15,13.15,0,0,1-.92,7.29,27.8,27.8,0,0,1-3.86,6.34,18.35,18.35,0,0,0-2,2.95,5.31,5.31,0,0,0-.57,3.4,5.42,5.42,0,0,0,2.79,2.28,11.5,11.5,0,0,0,4.78.49,10.51,10.51,0,0,0,5.23-1.39A8.29,8.29,0,0,0,406,382.4a17.28,17.28,0,0,0,.36-3.59,6.07,6.07,0,0,1,1.93-4.4c.25-.24,1.28-1.45,1.71-2a13.36,13.36,0,0,0-1.77-5.09Z" style="fill:#4C3397"></path><path d="M366.73,262.94s-2.79,36.7-2.55,46.91,1.27,50.55,1.27,50.55c5.72,3.34,14,.85,14,.85.67-32.21,3.71-39.13,1.64-50.92,1.46-8.75,3.47-29.14,3.47-29.14,2.85,24.52,4.91,37.16,4.91,37.16l6.81,49.09c5.59,2.92,12.64,0,12.64,0,0-28,.6-39.82-2.31-58.29-.16-28.43-1.59-45.71-1.59-45.71Z" style="fill:#4C3397"></path><path d="M366.73,262.94s-2.79,36.7-2.55,46.91,1.27,50.55,1.27,50.55c5.72,3.34,14,.85,14,.85.67-32.21,3.71-39.13,1.64-50.92,1.46-8.75,3.47-29.14,3.47-29.14,2.85,24.52,4.91,37.16,4.91,37.16l6.81,49.09c5.59,2.92,12.64,0,12.64,0,0-28,.6-39.82-2.31-58.29-.16-28.43-1.59-45.71-1.59-45.71Z" style="opacity:0.25"></path><path d="M373.49,272.42c1.95,4.78,8.07,4.78,8.07,4.78l1.09,5.43L382.24,302c1.18-9.4,2.3-20.77,2.3-20.77l-.76-5.81A16.19,16.19,0,0,1,373.49,272.42Z" style="opacity:0.30000000000000004"></path><polygon points="329.94 210.96 343.86 225.89 348.24 221.96 355.08 232.38 341.85 243.08 326.43 218.04 329.94 210.96" style="fill:#ffa8a7"></polygon><path d="M369.24,205.66c-5.95-.34-7.51,2.77-11.27,6.28s-10.84,10.32-10.84,10.32A14.14,14.14,0,0,0,355,233.35l13.1-9.67Z" style="fill:#455a64"></path><path d="M369.24,205.66c-5.95-.34-7.51,2.77-11.27,6.28s-10.84,10.32-10.84,10.32A14.14,14.14,0,0,0,355,233.35l13.1-9.67Z" style="fill:#fff;opacity:0.2"></path><path d="M406,265.72s-22.19,8.12-40.21-2c0,0,1.09-12.91,1.41-20.44s-2.27-22.06-2.66-26,.13-10.64,4.72-11.66c8.52-1.8,24.53,0,24.53,0l9.56,10.56A198.07,198.07,0,0,1,406,265.72Z" style="fill:#455a64"></path><path d="M382.3,234,377,247.69l5.87,9.14c8.54-3.88,6.79-2.78,12.69-17Z" style="fill:#ffa8a7"></path><path d="M393.77,205.66c-6.4,7.58-8.81,20.59-12.12,29,3.7,7,14,6.32,14,6.32C405.11,221.28,409.1,206.45,393.77,205.66Z" style="fill:#455a64"></path><path d="M393.77,205.66c-6.4,7.58-8.81,20.59-12.12,29,3.7,7,14,6.32,14,6.32C405.11,221.28,409.1,206.45,393.77,205.66Z" style="fill:#fff;opacity:0.2"></path><path d="M393.87,188a3.26,3.26,0,0,0-1.6-1.67,2.15,2.15,0,0,0-.48-.18,3,3,0,0,0-2.66.89,5.16,5.16,0,0,0-1.3,2.58,20.1,20.1,0,0,0-.32,2.9,35.4,35.4,0,0,1-.8,5.12,6.51,6.51,0,0,1-3.32,4.33l-.11.06a20,20,0,0,1-7.74,2.06V207c-2.13,2.9-2.73,8.46,2.9,6.8s9.29-5.4,9.29-9.08c0-1.56.07-3.55.11-5.34.06-2.4.1-4.41.1-4.41a3.13,3.13,0,0,0,2.06,1.08,3,3,0,0,0,1.08-.06,4.08,4.08,0,0,0,2.4-2.05,7.52,7.52,0,0,0,.77-3.13A6.35,6.35,0,0,0,393.87,188Z" style="fill:#ffa8a7"></path><path d="M392,177.82a7,7,0,0,0-4.42-2.35l-23.11,2.15c-2.67,5.64-.54,9.38-.54,9.38-.36,8.61-.66,14.09,3.13,15.9a17.66,17.66,0,0,0,8.44,1.17,20,20,0,0,0,7.74-2.06l.12-.06a6.58,6.58,0,0,0,3.32-4.35,35.11,35.11,0,0,0,.79-5.1,20.1,20.1,0,0,1,.32-2.9,5.16,5.16,0,0,1,1.3-2.58,3,3,0,0,1,2.66-.89,2.15,2.15,0,0,1,.48.18C392.93,182.48,393.12,179.16,392,177.82Z" style="fill:#37474f"></path><path d="M383.58,178.48a8,8,0,0,0,.3,4.84,33.18,33.18,0,0,1,1.47,4.7,7.69,7.69,0,0,1-.63,4.75,5.6,5.6,0,0,1-3.69,2.94c-2.48.52-4.9-.92-7.4-1.41a10.34,10.34,0,0,0-6.95,1.23,1.21,1.21,0,0,1-1.82-1c-.29-5-.29-12.72.44-16.37Z" style="fill:#ffa8a7"></path><path d="M365.7,174l-2.88-2a6.1,6.1,0,0,0,1.1,5.66,9.15,9.15,0,0,0,5.07,3,19.14,19.14,0,0,0,5.95.27,43.26,43.26,0,0,0,8.6-1.57,7,7,0,0,0,3.38-1.77,4.49,4.49,0,0,0,.18-5.27,6.76,6.76,0,0,0-4.76-2.75,18.05,18.05,0,0,0-5.71.45,17.27,17.27,0,0,1-5.72.41,5.94,5.94,0,0,1-4.61-3.05C364.68,170,365.7,174,365.7,174Z" style="fill:#37474f"></path><polygon points="372.95 187.27 368.73 192.37 372.6 193.74 372.95 187.27" style="fill:#f28f8f"></polygon><path d="M376.14,196.27l-3.26,1a2,2,0,0,0,2.19,1A1.8,1.8,0,0,0,376.14,196.27Z" style="fill:#f28f8f"></path><path d="M376.14,196.27l-3.26,1a2,2,0,0,0,2.19,1A1.8,1.8,0,0,0,376.14,196.27Z" style="opacity:0.30000000000000004"></path><path d="M374,198.22a1.76,1.76,0,0,0,1.06.06,1.62,1.62,0,0,0,1.06-1.47,2,2,0,0,0-1.26.23A1.94,1.94,0,0,0,374,198.22Z" style="fill:#f28f8f"></path><path d="M378.68,188.39a1.16,1.16,0,1,1-1.1-1.22A1.15,1.15,0,0,1,378.68,188.39Z" style="fill:#263238"></path><path d="M369,187.49a1.16,1.16,0,1,1-1.09-1.22A1.16,1.16,0,0,1,369,187.49Z" style="fill:#263238"></path><path d="M368.12,182.83l-2.66,1.64a1.64,1.64,0,0,1,.6-1.79A2,2,0,0,1,368.12,182.83Z" style="fill:#263238"></path><path d="M378,183.22l2.47,1.91a1.66,1.66,0,0,0-.4-1.84A2,2,0,0,0,378,183.22Z" style="fill:#263238"></path><path d="M384.84,201.86a7.43,7.43,0,0,0,1.35-2.8,6.52,6.52,0,0,1-2.8,2.89l-.11.06a20,20,0,0,1-7.74,2.06v2a19.17,19.17,0,0,0,4.57-1A10.36,10.36,0,0,0,384.84,201.86Z" style="opacity:0.2"></path><path d="M351.42,292.44c0-5.39-2.53-11.57-6.31-16.27h0l-5.29,3h0l-.85.49,2.39,24.51,6-3.46h0C349.85,299.5,351.4,296.63,351.42,292.44Z" style="fill:#e0e0e0"></path><path d="M351.42,292.44c0-5.39-2.53-11.57-6.31-16.27h0l-5.29,3h0l-.85.49,2.39,24.51,6-3.46h0C349.85,299.5,351.4,296.63,351.42,292.44Z" style="opacity:0.1"></path><path d="M354.27,167c0-7.3-3.84-15.79-9.35-21.61l-6.15,3.52,3.94,9.06.68,22.48,6.47-3.7h0C352.57,175.13,354.26,171.77,354.27,167Z" style="fill:#e0e0e0"></path><path d="M354.27,167c0-7.3-3.84-15.79-9.35-21.61l-6.15,3.52,3.94,9.06.68,22.48,6.47-3.7h0C352.57,175.13,354.26,171.77,354.27,167Z" style="opacity:0.2"></path><polygon points="333.07 138.61 333.02 155.39 326.88 158.91 326.93 142.13 333.07 138.61" style="fill:#e0e0e0"></polygon><polygon points="333.07 138.61 333.02 155.39 326.88 158.91 326.93 142.13 333.07 138.61" style="opacity:0.2"></polygon><polygon points="333.02 155.39 338.93 162.8 332.79 166.32 326.88 158.91 333.02 155.39" style="fill:#e0e0e0"></polygon><polygon points="333.02 155.39 338.93 162.8 332.79 166.32 326.88 158.91 333.02 155.39" style="opacity:0.1"></polygon><polygon points="332.79 166.32 338.93 162.8 338.73 165.75 332.79 166.32" style="fill:#e0e0e0"></polygon><polygon points="332.79 166.32 338.93 162.8 338.73 165.75 332.79 166.32" style="opacity:0.2"></polygon><path d="M332.81,184a7.39,7.39,0,0,1,3.35,5.81L336,267.39c0,2.14-1.51,3-3.37,1.93a7.36,7.36,0,0,1-3.35-5.81l.12-77.58C329.44,183.79,331,182.93,332.81,184Z" style="fill:#e0e0e0"></path><path d="M332.81,184a7.39,7.39,0,0,1,3.35,5.81L336,267.39c0,2.14-1.51,3-3.37,1.93a7.36,7.36,0,0,1-3.35-5.81l.12-77.58C329.44,183.79,331,182.93,332.81,184Z" style="opacity:0.15"></path><path d="M339,279.69c3.78,4.7,6.32,10.87,6.3,16.26,0,6-3.19,9.34-7.71,8.95l.05-17.27-4.91-6.15-4.93.47,0,17.32c-4.57-4.83-7.78-11.88-7.76-17.93,0-5.39,2.58-8.62,6.37-8.95l.18-98.39c-5.26-5.8-8.9-14-8.88-21.1,0-7.24,3.85-11.24,9.3-10.77l-.05,16.78,5.91,7.41,5.94-.57,0-16.85c5.52,5.82,9.38,14.31,9.36,21.6,0,7.1-3.71,11.08-9,10.8ZM336,267.39l.12-77.58a7.39,7.39,0,0,0-3.35-5.81c-1.85-1.07-3.37-.21-3.37,1.93l-.12,77.58a7.36,7.36,0,0,0,3.35,5.81c1.86,1.07,3.37.21,3.37-1.93" style="fill:#e0e0e0"></path><path d="M330.39,267c-.07-.11-.13-.22-.19-.33C330.26,266.74,330.32,266.85,330.39,267Z" style="fill:none"></path><path d="M343.74,288.08v-4l-4.78-6v1.56A30.35,30.35,0,0,1,343.74,288.08Z" style="fill:none"></path><polygon points="332.7 281.48 327.77 281.95 327.75 286.02 327.75 286.02 327.72 299.27 333.86 295.76 333.9 282.99 332.7 281.48" style="fill:#e0e0e0"></polygon><polygon points="332.7 281.48 327.77 281.95 327.75 286.02 327.75 286.02 327.72 299.27 333.86 295.76 333.9 282.99 332.7 281.48" style="opacity:0.2"></polygon><path d="M328.29,139.57h0l-6.33,3.63,5-1.07,6.14-3.52A8.07,8.07,0,0,0,328.29,139.57Z" style="fill:#e0e0e0"></path><path d="M328.29,139.57h0l-6.33,3.63,5-1.07,6.14-3.52A8.07,8.07,0,0,0,328.29,139.57Z" style="opacity:0.1"></path><path d="M339.15,181.3l-.09,63.81L339,279.69l6.14-3.52h0l.18-97.17A7.68,7.68,0,0,1,339.15,181.3Z" style="fill:#e0e0e0"></path><path d="M339.15,181.3l-.09,63.81L339,279.69l6.14-3.52h0l.18-97.17A7.68,7.68,0,0,1,339.15,181.3Z" style="opacity:0.2"></path><path d="M341.36,260.84a12.42,12.42,0,0,1-5.23-6.82,2,2,0,0,1,2.61-2.46c2.13.75,4.78,1.36,6.41.34v-3.73c4,0,6.87,2.25,9.89,4.85a83.27,83.27,0,0,0,18.07-5.24,37.89,37.89,0,0,1,5.23-1.87,9.52,9.52,0,0,1,5.47.15,5.49,5.49,0,0,1,3.55,4,5.86,5.86,0,0,1-2,5.14,14.33,14.33,0,0,1-5,2.72C372.81,260.57,344.84,263,341.36,260.84Z" style="fill:#ffa8a7"></path><path d="M326.43,218l-.32-.44a22.68,22.68,0,0,1-4.54-14.93l.1-2a3.72,3.72,0,0,1,1.32-2.64l3.31-2.82a4.23,4.23,0,0,1,2.74-1h1.87a1.2,1.2,0,0,1,1.18,1h0a1.19,1.19,0,0,1-1,1.33l-2.16.35-1.94,2,2.68-1.12,1.82.1a1.72,1.72,0,0,1,1.63,1.77l-.19,5.14a1.71,1.71,0,0,1-1.74,1.65h-1.48l-3.29,1.73Z" style="fill:#ffa8a7"></path></g><g id="freepik--character-1--inject-60"><path d="M269.15,421.9c-.6,1.27-2.52,2.44-4.63,2.79a21.27,21.27,0,0,1-6.35-.41,42.25,42.25,0,0,0-9.47-.24,50.88,50.88,0,0,1-5.9.42,9.39,9.39,0,0,1-5.55-1.75,5.72,5.72,0,0,1-2.08-3.54,5.38,5.38,0,0,0,2.08,4.77,9.47,9.47,0,0,0,5.55,1.76,48.78,48.78,0,0,0,5.9-.43,42.25,42.25,0,0,1,9.47.25c2.11.29,4.4.9,6.5.55s4-1.52,4.63-2.79Z" style="fill:#263238"></path><path d="M246.15,418.15c1.76,0,1.11-2.62,2.8-4.37-.69,0-1.37.05-2.06,0C245.38,416,245,418.15,246.15,418.15Z" style="fill:#fff"></path><path d="M249.82,418c1.78,0,1.31-3.12,3.06-4.94a10.42,10.42,0,0,1-1.21.35c-.35.08-.7.14-1,.19C249.06,415.81,248.61,418,249.82,418Z" style="fill:#fff"></path><path d="M267.32,412a2.36,2.36,0,0,0-.92-1.44l-9.55-.24a8.18,8.18,0,0,1-4,2.72c-1.75,1.82-1.28,4.94-3.06,4.94-1.21,0-.76-2.2.8-4.4-.56.08-1.11.13-1.67.17-1.69,1.75-1,4.37-2.8,4.37-1.2,0-.77-2.15.74-4.33h-1.34c-.41,0-.81,0-1.22-.07-3.52,2.78-3.82,5.8-3.36,10.53a12.48,12.48,0,0,0,1.83.19,50.88,50.88,0,0,0,5.9-.42,42.25,42.25,0,0,1,9.47.24,21.27,21.27,0,0,0,6.35.41c2.11-.35,4-1.52,4.63-2.79Z" style="fill:#455a64"></path><path d="M244.33,413.74a15.32,15.32,0,0,0-4.78,0,5.7,5.7,0,0,0-4.3,3.75,4.14,4.14,0,0,0-.08,1.68,5.72,5.72,0,0,0,2.08,3.54,8.32,8.32,0,0,0,3.72,1.56C240.51,419.54,240.81,416.52,244.33,413.74Z" style="fill:#fff"></path><path d="M256.57,407.63v4.6a1.89,1.89,0,0,0,1.9,1.89h4.81a3.1,3.1,0,0,0,3.11-3l.11-3.49Z" style="fill:#ad615f"></path><path d="M288.42,405.58a3.53,3.53,0,0,1-2.9,2,6.17,6.17,0,0,1-3.67-.9c-1.65-1.06-2.3-2.71-3.43-4.2a25.08,25.08,0,0,0-4-3.91,13.2,13.2,0,0,1-3.82-4.43,5.9,5.9,0,0,1-.45-1.62,5.78,5.78,0,0,0,.45,3.12,13.26,13.26,0,0,0,3.82,4.42,25.08,25.08,0,0,1,4,3.91c1.13,1.49,1.78,3.15,3.43,4.2a6.17,6.17,0,0,0,3.67.9,3.53,3.53,0,0,0,2.9-2,7.94,7.94,0,0,0,.18-2.57A3.38,3.38,0,0,1,288.42,405.58Z" style="fill:#263238"></path><path d="M277.56,395.47a1.22,1.22,0,0,0-.23.79.82.82,0,0,0,.52.59,1.14,1.14,0,0,0,1.08-.27,6.36,6.36,0,0,0,.74-.89,5.61,5.61,0,0,1,2.46-1.79,5.31,5.31,0,0,1,1.47-.33l-1.19-1.09a5.95,5.95,0,0,0-4.85,3Z" style="fill:#fff"></path><path d="M277.82,391.67a6.11,6.11,0,0,0-2.67,2.46,1.22,1.22,0,0,0-.23.79.82.82,0,0,0,.52.59,1.17,1.17,0,0,0,1.08-.27,6.36,6.36,0,0,0,.74-.89,5.5,5.5,0,0,1,4.88-2.11L281,391.16A6,6,0,0,0,277.82,391.67Z" style="fill:#fff"></path><path d="M280.2,390.48a12.65,12.65,0,0,0-3.75-2.51,5,5,0,0,0-5.16.71,4.49,4.49,0,0,0-1.14,3.87,5.9,5.9,0,0,0,.45,1.62,8.31,8.31,0,0,0,1.19,1.88C272.25,391.94,275.82,390,280.2,390.48Z" style="fill:#fff"></path><path d="M288.52,401.54a8.62,8.62,0,0,0-.94-4l-2.32-2.44-1.66-1.51a5.31,5.31,0,0,0-1.47.33,5.61,5.61,0,0,0-2.46,1.79,6.36,6.36,0,0,1-.74.89,1.14,1.14,0,0,1-1.08.27.82.82,0,0,1-.52-.59,1.22,1.22,0,0,1,.23-.79,5.95,5.95,0,0,1,4.85-3l-.27-.24a5.5,5.5,0,0,0-4.88,2.11,6.36,6.36,0,0,1-.74.89,1.17,1.17,0,0,1-1.08.27.82.82,0,0,1-.52-.59,1.22,1.22,0,0,1,.23-.79,6.11,6.11,0,0,1,2.67-2.46,6,6,0,0,1,3.14-.51l0,0c-.23-.22-.47-.43-.71-.64-4.38-.47-7.95,1.46-8.41,5.57a19.81,19.81,0,0,0,2.63,2.55,25.08,25.08,0,0,1,4,3.91c1.13,1.49,1.78,3.14,3.43,4.2a6.17,6.17,0,0,0,3.67.9,3.53,3.53,0,0,0,2.9-2,3.38,3.38,0,0,0,.18-1.08A29.18,29.18,0,0,0,288.52,401.54Z" style="fill:#455a64"></path><path d="M280.13,394.26l.28,4.95c3.11,1.79,6.39.81,7.49-.32l.2-4.63Z" style="fill:#ad615f"></path><path d="M286.28,287.45a4.37,4.37,0,0,1-.48-1.7l-.26-4.24-30.22,1.94c-.4,2.12-.81,4.72-1.2,7.66A44.94,44.94,0,0,0,286.28,287.45Z" style="fill:#ad615f"></path><path d="M285.68,270.34l6.44,12.44-5.84,9.79,6.46,10.23,9.76-15.16a8.51,8.51,0,0,0,1-7,119.46,119.46,0,0,0-6.34-17.26Z" style="fill:#ad615f"></path><path d="M280.57,246.32c7.41-1.38,11.64,1.09,17.9,17.85-2.56,5.73-13.4,7.85-13.4,7.85Z" style="fill:#ebebeb"></path><path d="M266.7,248.29l-8.09,1.59c-1.79,3.27-3.61,6.35-5.4,9.62-1.34,2.46-2.73,5.08-2.62,7.88a8,8,0,0,0,4.84,7l-.93,11c12.69,3.88,28.22.47,31.63-2.47,1-4.62,1.89-9.54,2.89-14.17a48.68,48.68,0,0,0,1.37-9.11,16.09,16.09,0,0,0-2.14-8.85l-.05-.08a9.88,9.88,0,0,0-9.92-4.26Z" style="fill:#fff"></path><path d="M286.75,288.23a4.15,4.15,0,0,1-.47-.78,44.94,44.94,0,0,1-32.16,3.66c-2.28,16.95-4.24,45.66-3,64.6,1,22.05,5,53.27,5,53.27,5.29,1.58,9.26.61,10.76-.53,1.76-21.87,5.64-36.87,2.65-51.33,2-10.11,3.29-22.81,3.29-22.81l1.53,22.34,5.17,39.27a9.27,9.27,0,0,0,9.29-.47c3.76-22.45,5.17-37.67,1.88-48.82C295.74,309.78,296,300.35,286.75,288.23Z" style="fill:#455a64"></path><path d="M275.06,329.89l2.78-11.63c3.23-.53,8.29-2.65,10.94-7.08a22.29,22.29,0,0,1-13.41,4.73l-2.53,18.4.54,7.86.21-2.86A61.31,61.31,0,0,1,275.06,329.89Z" style="opacity:0.30000000000000004"></path><path d="M206.54,235,214.69,256a8.38,8.38,0,0,0,6.39,5.24L235,263.72a12.3,12.3,0,0,0,2.46-13.06,67.55,67.55,0,0,1-12.53-1.38s-8.79-10.69-12.46-16.21l2.62-8.68a3,3,0,0,0-.27-2.35l-1.41-2.45a3,3,0,0,0-1.62-1.34l-2-.69a3.57,3.57,0,0,0-2.81.21l-3.09,1.62a1.18,1.18,0,0,0-.64,1.07h0a1.19,1.19,0,0,0,.64,1l1.16.59,1.6,2.72A8.57,8.57,0,0,0,206.54,235Z" style="fill:#ad615f"></path><path d="M257.35,249.74c-5,.23-12.52,1.06-19.9.92A12.3,12.3,0,0,1,235,263.72l17.37,3a7.46,7.46,0,0,0,8.39-5.5c.54-2.2,1.12-4.05,1.46-6.19A4.66,4.66,0,0,0,257.35,249.74Z" style="fill:#ebebeb"></path><path d="M256.85,226.56a14.08,14.08,0,0,1-1.59-7.45,8.07,8.07,0,0,1,3.91-6.3,5.69,5.69,0,0,1,7,1.23,13,13,0,0,1,19.18,12.43c-.17,2.68-1.15,5.31-.85,8,.18,1.57.8,3.15.38,4.67a4.81,4.81,0,0,1-2.54,2.88c-1.17.61-3.9.45-5.19.72-3.94,3.59-8.89,2.24-12-1S256.85,226.56,256.85,226.56Z" style="fill:#37474f"></path><polygon points="256.03 230.12 253.57 234.4 256.26 235.39 256.03 230.12" style="fill:#914746"></polygon><path d="M255.75,228.21c.4-3.76,1.49-7.3,3.94-9.09a20.29,20.29,0,0,0,2.81,13.43,5.94,5.94,0,0,1,1.82-3.22,3.39,3.39,0,0,1,3.5-.74,3.44,3.44,0,0,1,1.76,1.91,4.56,4.56,0,0,1-5.7,6,8.74,8.74,0,0,0,6.73,6.82,11.25,11.25,0,0,0,6.53-.62l1,5.06c-4.12,4.4-11.16,1.44-11.16,1.44l-.93-5c-8.1.48-8.85.34-9.75-4.12A43.81,43.81,0,0,1,255.75,228.21Z" style="fill:#ad615f"></path><path d="M273.69,222.76a14.22,14.22,0,0,1,6.45-7.7,13.57,13.57,0,0,1,5.2,11.41c-.17,2.68-1.15,5.31-.85,8,.18,1.57.8,3.15.38,4.67a4.81,4.81,0,0,1-2.54,2.88c-1.17.61-3.9.45-5.19.72-.17.16-.34.29-.52.43a39.1,39.1,0,0,1-3.2-8.23A21.06,21.06,0,0,1,273.69,222.76Z" style="opacity:0.30000000000000004"></path><path d="M275.94,220a10.32,10.32,0,0,1,19.68-.25c2.44,7.4-3.82,15.26-2.45,22.93.5,2.77,2,5.28,2.46,8a11.91,11.91,0,0,1-10.28,14c1.76-1.94,1.79-4.93.79-7.35s-2.79-4.41-4.33-6.52C275.59,242.22,272.88,230.05,275.94,220Z" style="fill:#37474f"></path></g><g id="freepik--speech-bubble--inject-60"><path d="M410.35,136.71h0Z" style="fill:none"></path><path d="M416.35,135.62a4.68,4.68,0,0,0-1.77-1.79l-38.69-21.94c-2.13-1.23-7.17.43-7.17,3.86v27.82a4.75,4.75,0,0,0,2.39,4.13l18,10.29-2.49-1.42L388.2,161a.25.25,0,0,0,.32.16v0c.28-.14,1.5-.8,2.2-1.26h0l0,0h0s.05,0,.06-.06l.39-.62,18.58,10.4a4.69,4.69,0,0,0,7.18-3.86V138A4.8,4.8,0,0,0,416.35,135.62Z" style="fill:#4C3397"></path><path d="M390.82,159.8s0,0-.06.06h0l0,0h0c-.7.46-1.92,1.12-2.2,1.26v0a.22.22,0,0,0,.15-.1l1.51-2.45-.3-.17h0l1.33.76Z" style="fill:#fff;opacity:0.2"></path><path d="M411.63,138.31a5.06,5.06,0,0,0-1.27-1.6h0a4.42,4.42,0,0,0-.57-.39l-38.69-21.94a1.58,1.58,0,0,0-2.37,1.37c0-3.43,5-5.09,7.17-3.86l38.69,21.94a4.68,4.68,0,0,1,1.77,1.79Z" style="fill:#fff;opacity:0.4"></path><path d="M412.16,168.2V140.44a3.64,3.64,0,0,0,0-.57,5,5,0,0,0-.49-1.56l4.72-2.69A4.8,4.8,0,0,1,417,138v27.77a4.69,4.69,0,0,1-7.18,3.86A1.59,1.59,0,0,0,412.16,168.2Z" style="fill:#fff;opacity:0.2"></path><path d="M381.36,137.91a2,2,0,0,0-1.77-.26,1.8,1.8,0,0,0-.94,1.81,5.58,5.58,0,0,0,.93,2.9,5.34,5.34,0,0,0,1.77,1.77,2,2,0,0,0,1.77.27,1.79,1.79,0,0,0,.94-1.81,5.62,5.62,0,0,0-.92-2.89A5.53,5.53,0,0,0,381.36,137.91Z" style="fill:#e0e0e0"></path><path d="M381.36,137.91a5.53,5.53,0,0,1,1.78,1.79l0-11.56a3.92,3.92,0,0,0-1.77-3.07c-1-.56-1.77-.11-1.77,1l0,11.56A2,2,0,0,1,381.36,137.91Z" style="fill:#fff"></path><path d="M381.35,144.13a5.34,5.34,0,0,1-1.77-1.77v2.93a3.9,3.9,0,0,0,1.76,3.05c1,.57,1.78.12,1.78-1V144.4A2,2,0,0,1,381.35,144.13Z" style="fill:#fff"></path><path d="M390.33,132.68a5.29,5.29,0,0,1,1.77,1.78V133.3a3.92,3.92,0,0,0-1.77-3.07c-1-.56-1.77-.11-1.78,1v1.16A2,2,0,0,1,390.33,132.68Z" style="fill:#fff"></path><path d="M390.31,138.9a5.35,5.35,0,0,1-1.76-1.78l0,13.33a3.93,3.93,0,0,0,1.76,3.06c1,.56,1.78.11,1.78-1l0-13.33A2.06,2.06,0,0,1,390.31,138.9Z" style="fill:#fff"></path><path d="M401,147.26a5.38,5.38,0,0,0-1.77-1.78,2,2,0,0,0-1.77-.26,1.8,1.8,0,0,0-1,1.81,5.7,5.7,0,0,0,.93,2.9,5.44,5.44,0,0,0,1.77,1.77A2,2,0,0,0,401,152a1.8,1.8,0,0,0,.94-1.81A5.6,5.6,0,0,0,401,147.26Z" style="fill:#e0e0e0"></path><path d="M399.23,151.7a5.44,5.44,0,0,1-1.77-1.77v5.68a3.87,3.87,0,0,0,1.76,3.06c1,.56,1.78.11,1.78-1l0-5.69A2,2,0,0,1,399.23,151.7Z" style="fill:#fff"></path><path d="M381.35,144.13a5.34,5.34,0,0,1-1.77-1.77v2.93a3.9,3.9,0,0,0,1.76,3.05c1,.57,1.78.12,1.78-1V144.4A2,2,0,0,1,381.35,144.13Z" style="opacity:0.30000000000000004"></path><path d="M390.31,138.9a5.35,5.35,0,0,1-1.76-1.78l0,13.33a3.93,3.93,0,0,0,1.76,3.06c1,.56,1.78.11,1.78-1l0-13.33A2.06,2.06,0,0,1,390.31,138.9Z" style="opacity:0.30000000000000004"></path><path d="M399.23,151.7a5.44,5.44,0,0,1-1.77-1.77v5.68a3.87,3.87,0,0,0,1.76,3.06c1,.56,1.78.11,1.78-1l0-5.69A2,2,0,0,1,399.23,151.7Z" style="opacity:0.30000000000000004"></path><path d="M399.25,145.48a5.38,5.38,0,0,1,1.77,1.78l0-8.8a3.92,3.92,0,0,0-1.77-3.07c-1-.56-1.77-.11-1.78,1l0,8.81A2,2,0,0,1,399.25,145.48Z" style="fill:#fff"></path><path d="M390.33,132.68a2,2,0,0,0-1.77-.27,1.8,1.8,0,0,0-.94,1.82,5.45,5.45,0,0,0,.93,2.89,5.35,5.35,0,0,0,1.76,1.78,2.06,2.06,0,0,0,1.78.27,1.83,1.83,0,0,0,1-1.82,5.56,5.56,0,0,0-.94-2.89A5.29,5.29,0,0,0,390.33,132.68Z" style="fill:#e0e0e0"></path></g></svg>